<svg width="155" height="130" viewBox="0 0 155 130" fill="none" xmlns="http://www.w3.org/2000/svg">
<path d="M33.3518 10.9294L66.6632 12.6545" stroke="black" stroke-width="2" stroke-miterlimit="10" stroke-linecap="round" stroke-dasharray="0.86 0.86"/>
<path d="M35.8815 128.607C25.6951 128.607 17.1451 121.298 15.5509 111.227L13.6122 98.9641" stroke="black" stroke-width="2" stroke-miterlimit="10" stroke-linecap="round" stroke-dasharray="0.86 0.86"/>
<path d="M129.353 110.33L128.147 110.528L123.03 111.372C123.03 111.372 94.2745 115.42 93.6007 115.42C93.4608 115.42 93.3209 115.429 93.1811 115.449L37.9359 122.982C37.2561 123.076 36.5643 123.122 35.8814 123.122C28.4097 123.122 22.1397 117.759 20.9696 110.372L8.80253 33.4167C8.71079 32.8392 8.65364 32.2601 8.62958 31.6826" stroke="black" stroke-width="2" stroke-miterlimit="10" stroke-linecap="round" stroke-linejoin="round"/>
<path d="M23.7129 15.9453C23.9746 15.9453 24.2392 15.9513 24.5039 15.9649L140 21.9446C143.853 22.1447 147.477 23.9599 149.945 26.9243C152.413 29.8901 153.54 33.7854 153.036 37.61L145.679 93.4206L145.482 94.9171" stroke="black" stroke-width="2" stroke-miterlimit="10" stroke-linecap="round" stroke-linejoin="round"/>
<path d="M148.956 37.0729C149.7 31.4285 145.473 26.3481 139.788 26.0534L24.2934 20.0736C17.315 19.7141 11.7759 25.8699 12.8678 32.7716L25.0349 109.727C25.9688 115.634 31.4553 119.713 37.3809 118.904L92.6291 111.37C94.5286 111.113 120.042 107.65 121.549 107.445L132.036 105.717C136.81 104.93 140.508 101.116 141.147 96.3217L148.956 37.0729Z" fill="#88CBFF"/>
<path d="M5.27124 80.4758L5.88185 79.8667" stroke="black" stroke-width="2" stroke-miterlimit="10" stroke-linecap="round"/>
<path d="M0.999969 84.7486L1.60908 84.1379" stroke="black" stroke-width="2" stroke-miterlimit="10" stroke-linecap="round"/>
<path d="M1.60908 80.4758L0.999969 79.8667" stroke="black" stroke-width="2" stroke-miterlimit="10" stroke-linecap="round"/>
<path d="M5.88185 84.7486L5.27124 84.1379" stroke="black" stroke-width="2" stroke-miterlimit="10" stroke-linecap="round"/>
<path d="M79.6658 5.38813C80.038 3.69339 78.9659 2.01782 77.2711 1.64563C75.5764 1.27344 73.9008 2.34557 73.5286 4.0403C73.1565 5.73503 74.2286 7.41061 75.9233 7.7828C77.6181 8.15499 79.2936 7.08286 79.6658 5.38813Z" stroke="black" stroke-width="2" stroke-miterlimit="10" stroke-linecap="round"/>
<path d="M145.941 113.509L147 112.45" stroke="black" stroke-width="2" stroke-miterlimit="10" stroke-linecap="round"/>
<path d="M138.55 120.901L139.606 119.846" stroke="black" stroke-width="2" stroke-miterlimit="10" stroke-linecap="round"/>
<path d="M139.606 113.509L138.55 112.45" stroke="black" stroke-width="2" stroke-miterlimit="10" stroke-linecap="round"/>
<path d="M147 120.901L145.941 119.846" stroke="black" stroke-width="2" stroke-miterlimit="10" stroke-linecap="round"/>
<path d="M83.1815 83.3983C83.6015 83.3983 83.9715 83.0883 84.0515 82.6783C84.1215 82.3283 83.9615 81.9383 83.6515 81.7483C83.5115 81.6583 83.3515 81.6183 83.1815 81.6183C82.9715 81.6183 82.7615 81.6883 82.6015 81.8283C82.3215 82.0583 82.2115 82.4583 82.3415 82.8083C82.4715 83.1583 82.8115 83.3983 83.1815 83.3983Z" fill="black"/>
<path d="M58.3815 62.9383C58.6415 62.9883 58.9115 63.0083 59.1815 63.0083C60.6015 63.0083 61.9115 62.3283 62.7615 61.7483L63.0215 61.5783L63.1415 61.8683C63.5015 62.7483 63.9215 63.6083 64.4115 64.4383C64.5915 64.7383 64.7715 65.0283 64.9615 65.3183L65.2315 65.7283L64.7415 65.7083C64.6815 65.7083 64.6215 65.7083 64.5615 65.7083C64.4015 65.7083 64.2415 65.7183 64.0915 65.7383C61.0515 66.0583 59.0615 69.4883 58.9815 69.6383C58.7915 69.9683 58.8315 70.3883 59.0915 70.6683C59.2015 70.7883 61.8815 73.7283 64.9015 73.4083C67.1115 73.1783 68.7715 71.2983 69.5615 70.2083L69.6915 70.0183L69.8915 70.1383C71.0115 70.8183 72.1815 71.3083 73.3715 71.5983C73.8215 71.7083 74.3315 71.4183 74.4415 70.9383C74.5615 70.4583 74.2615 69.9783 73.7815 69.8683C70.7315 69.1283 67.8715 66.8283 65.9215 63.5483C64.0815 60.4483 63.2815 56.8583 63.7115 53.7083L63.7315 53.5983L63.8315 53.5383C64.8515 52.8783 67.2615 51.0783 67.6015 48.5383C68.0315 45.3183 64.9915 42.3983 64.8615 42.2783C64.5815 42.0183 64.1715 41.9583 63.8315 42.1383C63.6715 42.2183 59.9715 44.2183 59.5315 47.4483C59.2015 49.9883 61.0715 52.3783 61.9015 53.2883L61.9815 53.3783L61.9615 53.4983C61.8315 54.4883 61.8015 55.5283 61.8815 56.5783L61.9215 57.1083L61.4915 56.8083C60.9315 56.4083 60.3315 56.1483 59.7215 56.0383C57.0615 55.5283 54.5615 57.7883 54.2815 58.0483C54.0015 58.3083 53.9215 58.7183 54.0815 59.0683C54.2415 59.3883 55.7115 62.4183 58.3815 62.9383ZM67.9215 69.0183L68.1015 69.1683L67.9615 69.3583C67.2315 70.3083 66.0815 71.4783 64.7215 71.6183C64.6315 71.6283 64.5315 71.6283 64.4415 71.6283C63.1015 71.6283 61.7815 70.6783 61.0815 70.0783L60.9015 69.9283L61.0415 69.7383C61.6415 68.9583 62.8515 67.6283 64.2815 67.4783C65.7115 67.3383 67.1815 68.3783 67.9215 69.0183ZM61.3115 47.6683C61.5315 46.0283 63.2115 44.6783 63.9215 44.1683L64.1115 44.0383L64.2615 44.2183C64.8115 44.8883 66.0715 46.6383 65.8515 48.2783C65.6315 49.9183 63.9515 51.2683 63.2515 51.7783L63.0515 51.9083L62.9015 51.7283C62.2215 50.8883 61.0915 49.2483 61.3115 47.6683ZM56.2215 58.7483C56.8915 58.2783 58.2015 57.5283 59.3815 57.7583C60.5615 57.9883 61.4915 59.1683 61.9415 59.8483L62.0815 60.0483L61.8815 60.1883C61.2915 60.5983 60.2215 61.2183 59.1715 61.2183C59.0215 61.2183 58.8715 61.2083 58.7215 61.1783C57.5415 60.9483 56.6115 59.7683 56.1615 59.0883L56.0315 58.8883L56.2215 58.7483Z" fill="black"/>
<path d="M92.2815 71.6083C92.3515 71.6083 92.4216 71.5983 92.4916 71.5883C93.6815 71.2983 94.8516 70.8083 95.9715 70.1283L96.1715 70.0083L96.3015 70.1983C97.0915 71.2983 98.7515 73.1683 100.962 73.3983C103.992 73.7183 106.672 70.7783 106.772 70.6583C107.022 70.3683 107.072 69.9583 106.882 69.6283C106.802 69.4783 104.802 66.0483 101.772 65.7283C101.552 65.7083 101.342 65.6983 101.122 65.7083L100.632 65.7283L100.912 65.3183C101.102 65.0383 101.292 64.7383 101.462 64.4383C101.952 63.6183 102.382 62.7483 102.732 61.8683L102.852 61.5783L103.112 61.7483C103.962 62.3183 105.272 63.0083 106.692 63.0083C106.962 63.0083 107.232 62.9783 107.492 62.9283C110.162 62.4183 111.632 59.3883 111.792 59.0383C111.952 58.6883 111.872 58.2783 111.592 58.0183C111.312 57.7583 108.812 55.4983 106.152 56.0083C105.542 56.1283 104.952 56.3883 104.382 56.7783L103.952 57.0783L103.992 56.5483C104.072 55.4983 104.042 54.4583 103.912 53.4683L103.892 53.3483L103.972 53.2583C104.792 52.3483 106.672 49.9683 106.332 47.3983C105.902 44.1683 102.192 42.1683 102.032 42.0883C101.692 41.9283 101.272 41.9883 101.002 42.2483C100.872 42.3683 97.8315 45.2883 98.2615 48.5083C98.6015 51.0483 101.012 52.8483 102.032 53.5083L102.132 53.5683L102.152 53.6783C102.592 56.8283 101.782 60.4183 99.9415 63.5183C97.9915 66.7983 95.1315 69.1083 92.0816 69.8383C91.6016 69.9583 91.3115 70.4383 91.4215 70.9083C91.5115 71.3283 91.8715 71.6083 92.2815 71.6083ZM103.922 59.8583C104.372 59.1783 105.312 57.9883 106.482 57.7683C107.662 57.5383 108.962 58.2883 109.642 58.7583L109.842 58.8983L109.702 59.0983C109.252 59.7783 108.312 60.9683 107.142 61.1883C106.992 61.2183 106.842 61.2283 106.692 61.2283C105.642 61.2283 104.572 60.6083 103.992 60.1983L103.792 60.0583L103.922 59.8583ZM100.022 48.2783C99.8015 46.6383 101.062 44.8883 101.612 44.2183L101.762 44.0383L101.952 44.1683C102.662 44.6783 104.342 46.0283 104.562 47.6683C104.782 49.3083 103.522 51.0483 102.972 51.7283L102.822 51.9083L102.632 51.7783C101.752 51.1383 100.232 49.8583 100.022 48.2783ZM97.9415 69.0183C98.6915 68.3783 100.152 67.3383 101.592 67.4883C103.022 67.6383 104.242 68.9683 104.832 69.7483L104.972 69.9383L104.792 70.0883C104.092 70.6783 102.772 71.6383 101.432 71.6383C101.342 71.6383 101.242 71.6383 101.152 71.6283C99.7215 71.4783 98.5015 70.1483 97.9016 69.3683L97.7615 69.1783L97.9415 69.0183Z" fill="black"/>
<path d="M108.512 82.5083L111.752 76.8083C111.912 76.5383 111.902 76.1983 111.752 75.9183C111.592 75.6483 111.302 75.4783 110.982 75.4783H87.3815V48.3983C87.3815 46.2983 85.0815 44.9983 82.9515 44.9983C82.1815 44.9983 81.5215 45.1683 81.0015 45.4883L74.2415 49.5883C73.0215 50.3183 72.3215 51.5883 72.3215 53.0683C72.3215 55.0283 73.6215 57.1383 75.7215 57.1383C76.0815 57.1383 76.6315 57.0683 77.2315 56.7383L77.6015 56.5383V75.4883H54.8915C54.5715 75.4883 54.2815 75.6583 54.1215 75.9283C53.9615 76.1983 53.9615 76.5383 54.1215 76.8183L57.3615 82.5183L54.1215 88.2183C53.9615 88.4883 53.9715 88.8283 54.1215 89.1083C54.2815 89.3783 54.5715 89.5483 54.8915 89.5483H110.982C111.302 89.5483 111.592 89.3783 111.752 89.1083C111.912 88.8383 111.912 88.4983 111.752 88.2183L108.512 82.5083ZM76.5315 55.0783C76.1615 55.3183 75.8615 55.3583 75.7215 55.3583C74.7615 55.3583 74.1015 54.1483 74.1015 53.0683C74.1015 52.4683 74.2815 51.6383 75.1615 51.1083L81.9215 47.0083C82.1715 46.8483 82.5115 46.7783 82.9515 46.7783C84.3115 46.7783 85.6015 47.5683 85.6015 48.3983V75.4783H79.3815V54.9183C79.3815 54.5983 79.2015 54.2983 78.9215 54.1383C78.6415 53.9783 78.2915 53.9883 78.0215 54.1583L76.5315 55.0783ZM65.9015 87.7583H56.4215L59.1615 82.9583C59.3115 82.6883 59.3115 82.3483 59.1615 82.0783L56.4215 77.2783H65.9015V87.7583ZM98.1915 81.6183H88.3615C87.8715 81.6183 87.4715 82.0183 87.4715 82.5083C87.4715 82.9983 87.8715 83.3983 88.3615 83.3983H98.1915V87.7583H67.6815V83.3983H78.0515C78.5415 83.3983 78.9415 82.9983 78.9415 82.5083C78.9415 82.0183 78.5415 81.6183 78.0515 81.6183H67.6815V77.2583H98.1915V81.6183ZM99.9715 87.7583V77.2683H109.452L106.712 82.0683C106.562 82.3383 106.562 82.6783 106.712 82.9483L109.452 87.7483H99.9715V87.7583Z" fill="black"/>
</svg>
