<svg width="129" height="129" viewBox="0 0 129 129" fill="none" xmlns="http://www.w3.org/2000/svg">
<path d="M128.998 64.7956C128.998 29.3377 100.253 0.593433 64.7956 0.593433C29.3377 0.593433 0.593384 29.3377 0.593384 64.7956C0.593384 100.254 29.3377 128.998 64.7956 128.998C100.253 128.998 128.998 100.254 128.998 64.7956Z" fill="#88CBFF"/>
<path d="M111.932 97.7271C118.462 88.3995 122.294 77.043 122.294 64.7917C122.294 33.0385 96.5536 7.2981 64.8004 7.2981C53.2273 7.2981 42.4529 10.7181 33.4321 16.6016" stroke="black" stroke-width="2" stroke-miterlimit="10" stroke-linecap="round"/>
<path d="M18.3113 30.9556C11.3901 40.4486 7.3053 52.1434 7.3053 64.7918C7.3053 96.545 33.0457 122.285 64.7989 122.285C76.4126 122.285 87.2216 118.841 96.2619 112.92C96.3822 112.842 96.5026 112.762 96.6214 112.683" stroke="black" stroke-width="2" stroke-miterlimit="10" stroke-linecap="round"/>
<path d="M83.76 81.9C83.77 81.87 83.78 81.83 83.78 81.8V76.83C83.78 76.28 83.33 75.84 82.79 75.84H66.87V69.87C66.87 69.85 66.86 69.84 66.86 69.82C71.27 69.56 75.41 67.58 78.38 64.31C78.45 64.25 78.5 64.19 78.55 64.12C82.95 59.14 84.03 52.03 81.29 45.97C78.56 39.9 72.53 36 65.88 36C59.23 36 53.19 39.9 50.46 45.96C47.72 52.02 48.8 59.12 53.2 64.11C53.25 64.18 53.31 64.25 53.37 64.3C56.34 67.58 60.47 69.56 64.89 69.81C64.89 69.83 64.88 69.84 64.88 69.86V75.83H48.96C48.41 75.83 47.97 76.28 47.97 76.82V79.8C47.97 79.83 47.98 79.85 47.99 79.88C44.37 80.39 41.76 83.62 42.02 87.27C42.28 90.92 45.31 93.74 48.97 93.74C52.63 93.74 55.66 90.91 55.92 87.27C56.18 83.62 53.57 80.4 49.95 79.88C49.96 79.85 49.96 79.83 49.97 79.8V77.81H64.89V83.78C64.89 83.81 64.9 83.83 64.91 83.86C61.29 84.37 58.68 87.6 58.94 91.25C59.2 94.9 62.23 97.72 65.89 97.72C69.55 97.72 72.58 94.89 72.84 91.25C73.1 87.6 70.49 84.38 66.87 83.86C66.88 83.83 66.88 83.81 66.89 83.78V77.81H81.81V81.79C81.81 81.82 81.82 81.86 81.83 81.89C79.32 82.39 77.6 84.71 77.85 87.26C78.1 89.8 80.24 91.74 82.8 91.74C85.36 91.74 87.5 89.8 87.75 87.26C87.99 84.72 86.27 82.4 83.76 81.9ZM65.88 38.03C71.38 38.03 76.44 41.05 79.04 45.9C81.64 50.75 81.35 56.64 78.3 61.22C77.3 57.4 74.63 54.24 71.02 52.62C72.24 51.39 72.9 49.71 72.84 47.98C72.84 44.13 69.72 41.02 65.88 41.02C62.03 41.02 58.92 44.14 58.92 47.98C58.86 49.71 59.52 51.39 60.74 52.62C57.14 54.23 54.46 57.4 53.46 61.22C50.41 56.64 50.12 50.75 52.72 45.9C55.32 41.05 60.37 38.02 65.88 38.03ZM55.07 63.21C55.6 58.76 58.79 55.08 63.12 53.91C63.52 53.81 63.83 53.48 63.88 53.06C63.93 52.65 63.72 52.25 63.35 52.05C61.78 51.3 60.82 49.69 60.9 47.96C60.9 45.23 63.13 43 65.88 43C68.63 43 70.85 45.23 70.85 47.97C70.93 49.7 69.97 51.32 68.4 52.06C68.03 52.25 67.82 52.65 67.87 53.07C67.92 53.48 68.22 53.82 68.63 53.92C72.96 55.08 76.15 58.76 76.68 63.22C73.87 66.19 69.97 67.88 65.88 67.88C61.79 67.88 57.88 66.19 55.07 63.21ZM53.94 86.78C53.94 88.79 52.73 90.61 50.87 91.38C49.01 92.15 46.87 91.72 45.45 90.3C44.03 88.88 43.6 86.74 44.37 84.88C45.14 83.02 46.95 81.81 48.97 81.81C51.71 81.8 53.93 84.03 53.94 86.78ZM70.85 90.75C70.85 92.76 69.64 94.58 67.78 95.35C65.92 96.12 63.78 95.69 62.36 94.27C60.94 92.85 60.51 90.71 61.28 88.85C62.05 86.99 63.86 85.78 65.88 85.78C68.62 85.78 70.85 88.01 70.85 90.75ZM82.79 89.76C81.58 89.76 80.49 89.03 80.03 87.92C79.57 86.81 79.82 85.52 80.68 84.67C81.53 83.82 82.82 83.56 83.93 84.02C85.05 84.48 85.77 85.57 85.77 86.78C85.77 88.42 84.44 89.76 82.79 89.76Z" fill="black"/>
</svg>
