<svg width="162" height="135" viewBox="0 0 162 135" fill="none" xmlns="http://www.w3.org/2000/svg">
<path d="M14.4998 77.8241C1.37171 176.772 195.598 117.589 150.737 38.4412C120.838 -14.3059 25.2126 -2.92087 14.4998 77.8241Z" stroke="black" stroke-width="2" stroke-miterlimit="10" stroke-linecap="round"/>
<path d="M6.13179 93.0517C1.72216 84.5919 -1.46174 72.306 3.55549 57.0994" stroke="black" stroke-width="2" stroke-miterlimit="10" stroke-linecap="round"/>
<path d="M143.172 114.53C134.477 123.301 122.218 129.254 107.684 131.934C101.892 133.002 95.7381 133.55 89.3056 133.55" stroke="black" stroke-width="2" stroke-miterlimit="10" stroke-linecap="round"/>
<path d="M35.5764 15.5494C46.8471 7.37832 59.4699 2.41523 72.8372 1" stroke="black" stroke-width="2" stroke-miterlimit="10" stroke-linecap="round"/>
<path d="M16.7077 41.7666C-42.0929 125.972 154.215 170.566 153.382 75.0027C152.829 11.3142 64.6917 -26.9497 16.7077 41.7666Z" fill="#88CBFF"/>
<g clip-path="url(#clip0)">
<path d="M98.52 64.8099C98.52 62.8899 96.96 61.3199 95.03 61.3199H88.62C90.18 59.5699 91.19 57.5799 91.39 55.7899C91.51 54.6999 91.17 53.6199 90.46 52.8199C89.81 52.0899 88.93 51.6799 87.97 51.6799C87.96 51.6799 87.95 51.6799 87.94 51.6799C87.01 51.6799 86.14 52.0399 85.48 52.6899C84.82 53.3399 84.46 54.2099 84.45 55.1399C84.42 55.3399 84.06 56.0399 83.19 56.8699C82.48 57.5499 81.24 58.4899 79.42 59.0799C78.7 59.3099 78.05 59.7399 77.48 60.3499C77.18 60.6699 76.73 61.1099 76.17 61.5599C75.9 61.4099 75.58 61.3299 75.25 61.3299H69.17C68.09 61.3299 67.21 62.2099 67.21 63.2899V79.5099C67.21 80.5899 68.09 81.4799 69.17 81.4799H75.25C75.99 81.4799 76.63 81.0699 76.97 80.4699H92.5C94.14 80.4699 95.48 79.1299 95.48 77.4899C95.48 76.9399 95.33 76.4199 95.07 75.9799C95.93 75.4599 96.5 74.5099 96.5 73.4399C96.5 72.8899 96.35 72.3699 96.09 71.9299C96.95 71.4099 97.52 70.4599 97.52 69.3899C97.52 68.7699 97.33 68.1899 97 67.7099C97.91 67.0699 98.52 66.0099 98.52 64.8099ZM95.04 66.3899H94.53C94.01 66.3899 93.58 66.8199 93.58 67.3399C93.58 67.8599 94.01 68.2899 94.53 68.2899C95.12 68.2899 95.61 68.7699 95.61 69.3699C95.61 69.9599 95.13 70.4499 94.53 70.4499H93.52C93 70.4499 92.57 70.8799 92.57 71.3999C92.57 71.9199 93 72.3499 93.52 72.3499C94.11 72.3499 94.6 72.8299 94.6 73.4299C94.6 74.0199 94.12 74.5099 93.52 74.5099H92.5C91.98 74.5099 91.55 74.9399 91.55 75.4599C91.55 75.9799 91.98 76.4099 92.5 76.4099C93.09 76.4099 93.58 76.8899 93.58 77.4899C93.58 78.0799 93.1 78.5699 92.5 78.5699H77.22V69.3799C77.22 68.8599 76.79 68.4299 76.27 68.4299C75.74 68.4299 75.32 68.8599 75.32 69.3799V79.5199C75.32 79.5499 75.29 79.5799 75.26 79.5799H69.18C69.15 79.5799 69.12 79.5499 69.12 79.5199V63.2899C69.12 63.2499 69.15 63.2299 69.18 63.2299H75.26C75.3 63.2299 75.32 63.2599 75.32 63.2899V65.3199C75.32 65.8399 75.75 66.2699 76.27 66.2699C76.79 66.2699 77.22 65.8399 77.22 65.3199V63.2899C77.22 63.2399 77.22 63.1999 77.21 63.1499C77.92 62.5999 78.49 62.0399 78.86 61.6399C79.21 61.2699 79.6 61.0099 80 60.8799C82.24 60.1499 83.74 58.9799 84.61 58.1299C85.7 57.0599 86.35 55.9499 86.35 55.1499C86.35 54.7299 86.51 54.3299 86.81 54.0399C87.11 53.7399 87.51 53.5799 87.95 53.5799C88.48 53.5899 88.84 53.8599 89.04 54.0899C89.39 54.4799 89.56 55.0399 89.5 55.5899C89.29 57.4799 87.78 59.8099 85.65 61.5399C85.34 61.7899 85.22 62.2199 85.35 62.5999C85.48 62.9799 85.84 63.2299 86.25 63.2299H95.03C95.9 63.2299 96.61 63.9399 96.61 64.8099C96.62 65.6799 95.91 66.3899 95.04 66.3899Z" fill="black"/>
<path d="M72.22 75.51C71.7 75.51 71.26 75.94 71.26 76.47C71.26 77 71.69 77.43 72.22 77.43C72.75 77.43 73.18 77 73.18 76.47C73.17 75.94 72.74 75.51 72.22 75.51Z" fill="black"/>
<path d="M111.02 68.3599L112.65 64.0399C112.77 63.7299 112.71 63.3699 112.5 63.1099L109.61 59.5099L109.83 54.8999C109.85 54.5599 109.68 54.2499 109.4 54.0599L105.54 51.5199L104.32 47.0599C104.23 46.7399 103.98 46.4799 103.65 46.3899L99.2 45.1699L96.66 41.3099C96.48 41.0299 96.16 40.8699 95.82 40.8799L91.21 41.0999L87.6 38.2099C87.35 37.9999 86.99 37.9399 86.68 38.0599L82.36 39.6899L78.04 38.0599C77.72 37.9399 77.37 37.9999 77.1 38.2099L73.5 41.0999L68.89 40.8799C68.55 40.8599 68.24 41.0299 68.05 41.3099L65.51 45.1699L61.05 46.3899C60.73 46.4799 60.48 46.7299 60.39 47.0499L59.17 51.5099L55.31 54.0499C55.03 54.2299 54.87 54.5499 54.88 54.8899L55.1 59.4999L52.21 63.0999C52 63.3699 51.94 63.7199 52.06 64.0299L53.69 68.3499L52.06 72.6699C51.94 72.9799 52 73.3399 52.21 73.5999L55.1 77.2099L54.88 81.8199C54.86 82.1599 55.03 82.4699 55.31 82.6599L59.17 85.1999L60.39 89.6599C60.48 89.9799 60.73 90.2399 61.06 90.3299L65.52 91.5499L68.06 95.4099C68.24 95.6899 68.56 95.8499 68.9 95.8399L73.51 95.6199L77.11 98.5099C77.37 98.7199 77.73 98.7799 78.04 98.6599L82.36 97.0299L86.68 98.6599C86.79 98.6999 86.9 98.7199 87.02 98.7199C87.23 98.7199 87.44 98.6499 87.61 98.5099L91.22 95.6199L95.83 95.8399C96.17 95.8599 96.48 95.6899 96.67 95.4099L99.21 91.5499L103.67 90.3299C103.99 90.2399 104.25 89.9899 104.34 89.6599L105.56 85.1999L109.42 82.6599C109.7 82.4799 109.86 82.1599 109.85 81.8199L109.63 77.2099L112.52 73.5999C112.73 73.3399 112.79 72.9799 112.67 72.6699L111.02 68.3599ZM109.11 68.6899L110.68 72.8399L107.91 76.2999C107.77 76.4799 107.69 76.7099 107.7 76.9399L107.91 81.3699L104.2 83.8099C104.01 83.9399 103.87 84.1299 103.8 84.3499L102.63 88.6299L98.35 89.7999C98.13 89.8599 97.93 89.9999 97.81 90.1999L95.37 93.9099L90.94 93.6999C90.71 93.6899 90.48 93.7599 90.3 93.9099L86.84 96.6799L82.69 95.1099C82.58 95.0699 82.47 95.0499 82.35 95.0499C82.24 95.0499 82.12 95.0699 82.01 95.1099L77.86 96.6799L74.4 93.9099C74.22 93.7699 73.99 93.6899 73.76 93.6999L69.33 93.9099L66.9 90.1999C66.77 90.0099 66.58 89.8699 66.36 89.7999L62.08 88.6299L60.91 84.3499C60.85 84.1299 60.71 83.9299 60.51 83.8099L56.8 81.3799L57.01 76.9499C57.02 76.7199 56.95 76.4899 56.8 76.3099L54.03 72.8499L55.6 68.6999C55.68 68.4799 55.68 68.2399 55.6 68.0299L54.03 63.8799L56.8 60.4199C56.94 60.2399 57.02 60.0099 57.01 59.7799L56.8 55.3399L60.51 52.8999C60.7 52.7699 60.84 52.5799 60.91 52.3599L62.08 48.0799L66.36 46.9099C66.58 46.8499 66.78 46.7099 66.9 46.5099L69.34 42.7999L73.77 43.0099C74 43.0199 74.23 42.9499 74.41 42.7999L77.87 40.0299L82.02 41.5999C82.24 41.6799 82.48 41.6799 82.69 41.5999L86.84 40.0299L90.3 42.7999C90.48 42.9399 90.71 43.0199 90.94 43.0099L95.37 42.7999L97.81 46.5099C97.94 46.6999 98.13 46.8399 98.35 46.9099L102.63 48.0799L103.8 52.3599C103.86 52.5799 104 52.7799 104.2 52.8999L107.91 55.3399L107.7 59.7699C107.69 59.9999 107.76 60.2299 107.91 60.4099L110.68 63.8699L109.11 68.0199C109.03 68.2399 109.03 68.4799 109.11 68.6899Z" fill="black"/>
<path d="M100.22 51.94C99.98 51.68 99.74 51.43 99.49 51.18C99.24 50.93 98.99 50.69 98.73 50.45C98.34 50.09 97.74 50.12 97.39 50.51C97.03 50.9 97.06 51.5 97.45 51.85C97.69 52.07 97.92 52.29 98.15 52.52C98.38 52.75 98.61 52.99 98.82 53.22C99.01 53.42 99.26 53.53 99.52 53.53C99.75 53.53 99.98 53.45 100.16 53.28C100.55 52.93 100.57 52.33 100.22 51.94Z" fill="black"/>
<path d="M95.35 47.86C90.77 44.94 85.25 43.64 79.81 44.2C74.29 44.77 69.09 47.25 65.16 51.18C60.84 55.5 58.32 61.25 58.07 67.36C57.82 73.43 59.83 79.32 63.73 83.96C63.92 84.18 64.19 84.3 64.46 84.3C64.68 84.3 64.89 84.23 65.07 84.08C65.47 83.74 65.52 83.14 65.19 82.74C61.6 78.47 59.75 73.04 59.97 67.45C60.2 61.82 62.52 56.53 66.5 52.54C70.12 48.92 74.92 46.63 80 46.11C85.01 45.59 90.1 46.79 94.32 49.48C94.76 49.76 95.35 49.63 95.63 49.19C95.92 48.73 95.79 48.14 95.35 47.86Z" fill="black"/>
<path d="M102.81 55.32C102.53 54.88 101.94 54.75 101.5 55.03C101.06 55.31 100.93 55.9 101.21 56.34C103.9 60.56 105.1 65.65 104.58 70.66C104.05 75.74 101.77 80.54 98.15 84.16C94.16 88.15 88.87 90.47 83.24 90.69C77.65 90.92 72.21 89.06 67.95 85.47C67.55 85.13 66.95 85.18 66.61 85.58C66.27 85.98 66.32 86.58 66.72 86.92C71.1 90.6 76.6 92.6 82.32 92.6C82.65 92.6 82.98 92.59 83.31 92.58C89.42 92.33 95.16 89.82 99.48 85.49C103.41 81.56 105.89 76.36 106.46 70.84C107.03 65.42 105.73 59.9 102.81 55.32Z" fill="black"/>
</g>
<path d="M160.846 102.652C160.846 104.387 159.44 105.793 157.705 105.793C155.969 105.793 154.563 104.387 154.563 102.652C154.563 100.916 155.969 99.5098 157.705 99.5098C159.44 99.5098 160.846 100.916 160.846 102.652Z" stroke="black" stroke-width="2" stroke-miterlimit="10" stroke-linecap="round"/>
<path d="M16.0409 22.0495L17.0904 21M8.69983 29.3931L9.74673 28.3436M9.74673 22.0495L8.69983 21M17.0904 29.3931L16.0409 28.3436" stroke="black" stroke-width="2" stroke-miterlimit="10" stroke-linecap="round"/>
<path d="M23.1913 44.3759C-29.5438 119.896 146.515 159.89 145.768 74.183C145.27 17.0654 66.2243 -17.2522 23.1913 44.3759Z" stroke="black" stroke-width="2" stroke-miterlimit="10" stroke-linecap="round"/>
<defs>
<clipPath id="clip0">
<rect width="60.71" height="60.71" fill="white" transform="translate(52 38)"/>
</clipPath>
</defs>
</svg>
