<svg width="149" height="140" viewBox="0 0 149 140" fill="none" xmlns="http://www.w3.org/2000/svg">
<path d="M132.363 106.721L57.1703 137.29C46.4921 141.632 34.3145 136.494 29.974 125.814L3.47864 60.6414C-0.863309 49.9633 4.27425 37.7856 14.9539 33.4452L90.1462 2.87708C100.824 -1.46487 113.002 3.67267 117.342 14.3523L143.838 79.5252C148.18 90.2034 143.042 102.381 132.363 106.721Z" stroke="black" stroke-width="2" stroke-miterlimit="10" stroke-linecap="round"/>
<path d="M11.0045 21.9759C15.4548 14.4109 23.6814 9.323 33.0737 9.323" stroke="black" stroke-width="2" stroke-miterlimit="10" stroke-linecap="round"/>
<path d="M133.793 121.747C129.096 127.307 122.075 130.845 114.243 130.845H98.8512" stroke="black" stroke-width="2" stroke-miterlimit="10" stroke-linecap="round"/>
<path d="M114.243 126.133H33.0737C21.5458 126.133 12.2017 116.787 12.2017 105.261V34.9084C12.2017 23.3805 21.5458 14.0364 33.0737 14.0364H114.243C125.771 14.0364 135.115 23.382 135.115 34.9084V105.261C135.115 116.787 125.771 126.133 114.243 126.133Z" fill="#88CBFF"/>
<g clip-path="url(#clip0)">
<path d="M70.6599 55.29C72.7199 55.29 74.5799 54.05 75.3599 52.15C76.1499 50.25 75.7099 48.06 74.2599 46.6C72.7999 45.14 70.6099 44.71 68.7099 45.5C66.8099 46.29 65.5699 48.14 65.5699 50.2C65.5699 53.01 67.8499 55.29 70.6599 55.29ZM70.6599 47.15C71.8999 47.15 73.0099 47.89 73.4799 49.04C73.9499 50.18 73.6899 51.49 72.8199 52.37C71.9499 53.24 70.6299 53.5 69.4899 53.03C68.3499 52.56 67.5999 51.44 67.5999 50.21C67.5999 48.51 68.9699 47.15 70.6599 47.15Z" fill="black"/>
<path d="M59.1399 60.06C61.5699 60.06 63.6599 58.34 64.1299 55.96C64.5999 53.58 63.3299 51.19 61.0799 50.27C58.8399 49.34 56.2499 50.13 54.8999 52.15C53.5499 54.17 53.8199 56.86 55.5399 58.58C56.4899 59.52 57.7899 60.06 59.1399 60.06ZM56.9799 52.81C57.8499 51.94 59.1699 51.68 60.3099 52.15C61.4499 52.62 62.1999 53.74 62.1999 54.97C62.1999 56.21 61.4599 57.32 60.3099 57.79C59.1699 58.26 57.8599 58 56.9799 57.13C56.3999 56.56 56.0799 55.78 56.0799 54.97C56.0799 54.16 56.4099 53.38 56.9799 52.81Z" fill="black"/>
<path d="M59.4599 66.49C59.4599 64.43 58.2199 62.57 56.3199 61.79C54.4199 61 52.2299 61.44 50.7699 62.89C49.3099 64.35 48.8799 66.54 49.6699 68.44C50.4599 70.34 52.3099 71.58 54.3699 71.58C57.1799 71.58 59.4599 69.3 59.4599 66.49ZM51.3099 66.49C51.3099 65.25 52.0499 64.14 53.1999 63.67C54.3399 63.2 55.6499 63.46 56.5299 64.33C57.3999 65.2 57.6599 66.52 57.1899 67.66C56.7199 68.8 55.5999 69.55 54.3699 69.55C52.6799 69.54 51.3099 68.18 51.3099 66.49Z" fill="black"/>
<path d="M55.5399 74.41C54.0799 75.87 53.6499 78.06 54.4399 79.96C55.2299 81.86 57.0799 83.1 59.1399 83.1C61.1999 83.1 63.0599 81.86 63.8399 79.96C64.6299 78.06 64.1899 75.87 62.7399 74.41C60.7499 72.42 57.5299 72.42 55.5399 74.41ZM61.2999 80.17C60.4299 81.04 59.1099 81.3 57.9699 80.83C56.8299 80.36 56.0799 79.24 56.0799 78.01C56.0799 76.77 56.8199 75.66 57.9699 75.19C59.1099 74.72 60.4299 74.98 61.2999 75.85C62.4899 77.04 62.4899 78.97 61.2999 80.17Z" fill="black"/>
<path d="M82.18 60.06C84.61 60.06 86.7 58.34 87.17 55.96C87.64 53.58 86.37 51.19 84.12 50.27C81.88 49.34 79.29 50.13 77.94 52.15C76.59 54.17 76.86 56.86 78.58 58.58C79.53 59.53 80.83 60.06 82.18 60.06ZM80.02 52.81C80.89 51.94 82.21 51.68 83.35 52.15C84.49 52.62 85.24 53.74 85.24 54.97C85.24 56.21 84.5 57.32 83.35 57.79C82.21 58.26 80.89 58 80.02 57.13C79.44 56.56 79.12 55.78 79.12 54.97C79.12 54.16 79.44 53.38 80.02 52.81Z" fill="black"/>
<path d="M103.35 70.5601C103.87 70.5001 104.26 70.0701 104.26 69.5501V65.4801C104.26 65.1901 104.14 64.9101 103.92 64.7201C103.71 64.5201 103.42 64.4301 103.13 64.4701L98.1 65.0301C97.54 54.5301 91.03 45.2601 81.33 41.1801C71.64 37.0801 60.46 38.8801 52.55 45.8101C44.63 52.7401 41.37 63.5801 44.14 73.7301C46.91 83.8801 55.23 91.5501 65.57 93.5001V99.0701C65.57 99.6301 66.03 100.09 66.59 100.09H103.24C103.8 100.09 104.26 99.6301 104.26 99.0701V74.6301C104.26 74.0701 103.8 73.6101 103.24 73.6101H97.19C97.41 72.8001 97.59 71.9901 97.73 71.1701L103.35 70.5601ZM102.22 68.6301L67.6 72.4801V70.4601L102.22 66.6101V68.6301ZM75.63 67.5101L66.47 68.5301C66.33 68.5501 66.19 68.6001 66.06 68.6801C65.39 67.2801 65.39 65.6601 66.07 64.2601C66.75 62.8701 68.02 61.8601 69.53 61.5101C71.04 61.1701 72.63 61.5301 73.83 62.5001C75.04 63.4701 75.74 64.9301 75.74 66.4801C75.75 66.8301 75.71 67.1801 75.63 67.5101ZM83.89 66.4901C83.9 64.9201 85.1 63.6201 86.66 63.4701C88.22 63.3201 89.64 64.3801 89.94 65.9201L83.9 66.6001C83.9 66.5601 83.89 66.5301 83.89 66.4901ZM45.21 66.4901C45.21 52.6801 56.23 41.3901 70.03 41.0501C83.84 40.7101 95.39 51.4501 96.07 65.2401L91.96 65.7001C91.55 63.0801 89.19 61.2101 86.54 61.4201C83.89 61.6301 81.85 63.8401 81.85 66.4901C81.85 66.6001 81.87 66.7101 81.87 66.8201L77.71 67.2801C77.75 67.0201 77.77 66.7501 77.77 66.4901C77.78 64.1101 76.6 61.8901 74.63 60.5601C72.66 59.2301 70.16 58.9701 67.96 59.8601C65.76 60.7501 64.15 62.6901 63.66 65.0101C63.18 67.3401 63.88 69.7501 65.55 71.4501V73.6101C65.56 73.7901 65.61 73.9701 65.71 74.1201C65.61 74.2701 65.56 74.4501 65.55 74.6301V91.4001C53.76 88.9301 45.28 78.5501 45.21 66.4901ZM102.22 98.0501H67.6V75.6501H102.22V98.0501ZM95.08 73.6201H75.8L95.61 71.4201C95.47 72.1601 95.29 72.8901 95.08 73.6201Z" fill="black"/>
<path d="M81.32 91.79C81.62 91.98 81.99 91.99 82.31 91.84L90.46 87.77C90.81 87.6 91.02 87.24 91.02 86.86C91.02 86.48 90.8 86.12 90.46 85.95L82.31 81.88C81.99 81.72 81.62 81.74 81.32 81.93C81.02 82.12 80.84 82.44 80.84 82.8V90.95C80.84 91.28 81.02 91.61 81.32 91.79ZM82.88 84.43L87.73 86.86L82.88 89.29V84.43Z" fill="black"/>
<path d="M84.91 96.02C88.62 96.02 91.96 93.79 93.38 90.36C94.8 86.94 94.01 83 91.39 80.37C88.77 77.75 84.83 76.97 81.4 78.38C77.98 79.8 75.74 83.14 75.74 86.85C75.76 91.91 79.85 96.01 84.91 96.02ZM84.91 79.73C87.79 79.73 90.39 81.47 91.49 84.13C92.59 86.79 91.98 89.86 89.94 91.9C87.9 93.94 84.84 94.55 82.17 93.45C79.51 92.35 77.77 89.75 77.77 86.87C77.79 82.92 80.98 79.73 84.91 79.73Z" fill="black"/>
</g>
<path d="M55.6587 1.6106L56.2693 1" stroke="black" stroke-width="2" stroke-miterlimit="10" stroke-linecap="round"/>
<path d="M51.386 5.88186L51.9966 5.27124" stroke="black" stroke-width="2" stroke-miterlimit="10" stroke-linecap="round"/>
<path d="M51.9966 1.6106L51.386 1" stroke="black" stroke-width="2" stroke-miterlimit="10" stroke-linecap="round"/>
<path d="M56.2693 5.88186L55.6587 5.27124" stroke="black" stroke-width="2" stroke-miterlimit="10" stroke-linecap="round"/>
<path d="M20.3167 132.767L20.9273 132.156" stroke="black" stroke-width="2" stroke-miterlimit="10" stroke-linecap="round"/>
<path d="M16.0453 137.04L16.6559 136.429" stroke="black" stroke-width="2" stroke-miterlimit="10" stroke-linecap="round"/>
<path d="M16.6559 132.767L16.0453 132.156" stroke="black" stroke-width="2" stroke-miterlimit="10" stroke-linecap="round"/>
<path d="M20.9273 137.04L20.3167 136.429" stroke="black" stroke-width="2" stroke-miterlimit="10" stroke-linecap="round"/>
<path d="M147.289 50.1633C147.289 51.8988 145.883 53.305 144.148 53.305C142.412 53.305 141.006 51.8988 141.006 50.1633C141.006 48.4277 142.412 47.0215 144.148 47.0215C145.883 47.0215 147.289 48.4292 147.289 50.1633Z" stroke="black" stroke-width="2" stroke-miterlimit="10" stroke-linecap="round"/>
<path d="M124.587 117.815L44.206 133.364C32.7894 135.572 21.7458 128.109 19.5365 116.693L6.05791 47.0229C3.85008 35.6062 11.3128 24.5626 22.7294 22.3533L103.11 6.80229C114.525 4.59447 125.571 12.0571 127.778 23.4738L141.257 93.1435C143.466 104.56 136.002 115.605 124.587 117.815Z" stroke="black" stroke-width="2" stroke-miterlimit="10" stroke-linecap="round"/>
<defs>
<clipPath id="clip0">
<rect width="61.26" height="61.09" fill="white" transform="translate(43 39)"/>
</clipPath>
</defs>
</svg>
