<svg width="101" height="31" viewBox="0 0 101 31" fill="none" xmlns="http://www.w3.org/2000/svg">
<path d="M94.062 0.442882H87.7144C85.7953 0.442882 84.3192 1.03336 83.4334 2.95241L71.3287 30.5572H79.8906C79.8906 30.5572 81.3668 26.8667 81.662 25.981C82.5477 25.981 90.962 25.981 92.143 25.981C92.4382 27.0143 93.1763 30.4095 93.1763 30.4095H100.852L94.062 0.442882ZM84.0239 19.781C84.762 18.0095 87.2715 11.3667 87.2715 11.3667C87.2715 11.5143 88.0096 9.59526 88.3049 8.56193L88.8953 11.2191C88.8953 11.2191 90.5192 18.4524 90.8144 19.9286H84.0239V19.781Z" fill="#3362AB"/>
<path d="M71.9191 20.6667C71.9191 26.8667 66.3096 31 57.6 31C53.9096 31 50.3667 30.2619 48.4477 29.3762L49.6286 22.5857L50.6619 23.0286C53.3191 24.2095 55.0905 24.6524 58.3381 24.6524C60.7 24.6524 63.2096 23.7667 63.2096 21.7C63.2096 20.3714 62.1762 19.4857 58.9286 18.0095C55.8286 16.5333 51.6953 14.1714 51.6953 9.89048C51.6953 3.98571 57.4524 0 65.5715 0C68.6715 0 71.3286 0.590476 72.9524 1.32857L71.7715 7.82381L71.181 7.23333C69.7048 6.64286 67.7857 6.05238 64.981 6.05238C61.881 6.2 60.4048 7.52857 60.4048 8.70952C60.4048 10.0381 62.1762 11.0714 64.981 12.4C69.7048 14.6143 71.9191 17.1238 71.9191 20.6667Z" fill="#3362AB"/>
<path d="M36.9333 0.442809L24.0905 30.4095H15.381L8 5.31424C13.3143 8.70947 17.7429 14.0238 19.3667 17.7142L20.2524 20.8142L28.2238 0.29519H36.9333V0.442809Z" fill="#3362AB"/>
<path d="M40.3286 0.29519H48.4477L43.281 30.4095H35.162L40.3286 0.29519Z" fill="#3362AB"/>
<path d="M0 0.738181L0.147619 0.147705H12.8429C14.6143 0.147705 15.9429 0.738181 16.3857 2.65723L19.1905 15.9429C16.3857 8.85723 9.89048 3.10009 0 0.738181Z" fill="#F9B50B"/>
</svg>
