<svg width="160" height="133" viewBox="0 0 160 133" fill="none" xmlns="http://www.w3.org/2000/svg">
<path d="M33.3518 10.9294L66.6632 12.6545" stroke="black" stroke-width="2" stroke-miterlimit="10" stroke-linecap="round" stroke-dasharray="0.86 0.86"/>
<path d="M35.8815 128.607C25.6951 128.607 17.1451 121.298 15.5509 111.227L13.6122 98.9641" stroke="black" stroke-width="2" stroke-miterlimit="10" stroke-linecap="round" stroke-dasharray="0.86 0.86"/>
<path d="M129.353 110.33L128.147 110.528L123.03 111.372C123.03 111.372 94.2745 115.421 93.6007 115.421C93.4609 115.421 93.321 115.43 93.1811 115.449L37.9359 122.983C37.2561 123.076 36.5643 123.122 35.8815 123.122C28.4098 123.122 22.1398 117.759 20.9697 110.372L8.80259 33.4168C8.71085 32.8393 8.6537 32.2603 8.62964 31.6827" stroke="black" stroke-width="2" stroke-miterlimit="10" stroke-linecap="round" stroke-linejoin="round"/>
<path d="M23.7129 15.9452C23.9746 15.9452 24.2393 15.9512 24.504 15.9647L140 21.9445C143.853 22.1445 147.477 23.9598 149.945 26.9241C152.413 29.89 153.54 33.7852 153.036 37.6098L145.679 93.4205L145.482 94.917" stroke="black" stroke-width="2" stroke-miterlimit="10" stroke-linecap="round" stroke-linejoin="round"/>
<path d="M149.226 36.0143C149.97 30.3699 145.743 25.2895 140.058 24.9948L24.5635 19.015C17.5851 18.6555 12.046 24.8113 13.1379 31.713L25.305 108.668C26.2389 114.576 31.7254 118.654 37.651 117.845L92.8992 110.312C94.7988 110.055 120.312 106.591 121.819 106.386L132.306 104.658C137.08 103.872 140.778 100.058 141.417 95.2631L149.226 36.0143Z" fill="#88CBFF"/>
<path d="M5.27124 80.4759L5.88185 79.8668" stroke="black" stroke-width="2" stroke-miterlimit="10" stroke-linecap="round"/>
<path d="M1 84.7487L1.60911 84.1381" stroke="black" stroke-width="2" stroke-miterlimit="10" stroke-linecap="round"/>
<path d="M1.60911 80.4759L1 79.8668" stroke="black" stroke-width="2" stroke-miterlimit="10" stroke-linecap="round"/>
<path d="M5.88185 84.7487L5.27124 84.1381" stroke="black" stroke-width="2" stroke-miterlimit="10" stroke-linecap="round"/>
<path d="M79.6659 5.38813C80.0381 3.69339 78.9659 2.01782 77.2712 1.64563C75.5765 1.27344 73.9009 2.34557 73.5287 4.0403C73.1565 5.73503 74.2287 7.41061 75.9234 7.7828C77.6181 8.15499 79.2937 7.08286 79.6659 5.38813Z" stroke="black" stroke-width="2" stroke-miterlimit="10" stroke-linecap="round"/>
<path d="M104.404 97.6349C80.8445 131.421 159.499 149.314 159.165 110.97C158.944 85.4163 123.63 70.0633 104.404 97.6349Z" fill="#4050A5"/>
<path d="M124.86 104.432C125.324 104.24 125.804 104.024 126.3 103.784C126.812 103.528 127.308 103.256 127.788 102.968C128.268 102.664 128.724 102.352 129.156 102.032C129.604 101.696 130.004 101.344 130.356 100.976H132.852V117.608H129.276V105.632C128.796 105.952 128.26 106.248 127.668 106.52C127.076 106.776 126.5 107 125.94 107.192L124.86 104.432Z" fill="white"/>
<path d="M89.01 74.32L88.91 74.3V73.18L88.96 73.14C89.21 72.94 89.46 72.71 89.73 72.45C91.71 70.27 92.94 67.57 93.27 64.64L93.28 64.55L93.37 64.54C95.14 64.27 96.7 63.34 97.78 61.92C99.26 59.82 99.39 56.83 98.14 53.03C98.08 52.84 97.95 52.67 97.78 52.56L97.15 52.14V52.07C97.23 48.64 96.05 45.32 93.83 42.7C91.08 39.61 86.83 38.02 81.21 38C75.61 38 71.36 39.57 68.58 42.66C66.36 45.27 65.18 48.59 65.26 52.02V52.09L64.63 52.51C64.46 52.63 64.33 52.79 64.26 52.99C63.02 56.79 63.15 59.79 64.63 61.88C65.7 63.31 67.27 64.25 69.04 64.53L69.13 64.54L69.14 64.63C69.48 67.56 70.71 70.27 72.7 72.46C72.95 72.71 73.2 72.94 73.46 73.15L73.51 73.19V74.31L73.41 74.33C68.8 75.22 53.74 78.93 54 89.24C54 89.74 54.41 90.15 54.91 90.15H107.52C108.02 90.15 108.43 89.74 108.43 89.24C108.69 78.93 93.63 75.22 89.01 74.32ZM68.37 62.46C67.46 62.16 66.68 61.59 66.12 60.81L65.93 60.56L66.01 60.57C65.09 59.01 65.07 56.77 65.94 53.89L65.95 53.85L66.74 53.32C67.02 53.13 67.17 52.81 67.14 52.47C66.96 49.33 67.97 46.27 69.98 43.86C72.33 41.2 76.1 39.84 81.2 39.82C81.24 39.82 81.28 39.82 81.31 39.82C86.3 39.82 90.05 41.18 92.46 43.86C94.47 46.28 95.48 49.33 95.31 52.47C95.28 52.81 95.43 53.13 95.71 53.32L96.5 53.85L96.51 53.89C97.45 56.95 97.37 59.28 96.29 60.82C95.72 61.6 94.94 62.17 94.02 62.47L93.58 62.62L93.89 62.27C95.11 60.88 95.71 59.03 95.55 57.19C95.36 56.1 94.79 55.09 93.93 54.38L93.89 54.34V54.28C93.45 44 86.26 42.9 83.19 42.9C83.18 42.9 83.17 42.9 83.15 42.9C82.51 42.9 81.87 42.95 81.23 43.04H81.19C80.54 42.94 79.87 42.89 79.23 42.9C76.17 42.9 69 44.01 68.53 54.29V54.35L68.49 54.39C67.63 55.1 67.04 56.1 66.85 57.2C66.68 59.03 67.29 60.88 68.51 62.27L68.82 62.62L68.37 62.46ZM92.9 53.92L91.96 53.97C91.54 53.99 91.12 54.01 90.7 54.01C86.75 54.01 82.91 52.93 79.52 50.85C79.14 50.58 78.64 50.64 78.33 50.96C76.18 53.27 72.19 53.75 70.58 53.86L70.44 53.87L70.45 53.73C71.02 46.27 75.57 44.7 79.29 44.7C79.88 44.7 80.49 44.74 81.08 44.85C81.21 44.88 81.33 44.87 81.45 44.85C82.05 44.75 82.64 44.7 83.25 44.7C86.95 44.7 91.47 46.27 92.03 53.74L92.9 53.92ZM70.81 62.54V62.38L70.84 62.39C70.81 62.22 70.74 62.07 70.63 61.94C69.17 60.27 68.52 58.78 68.71 57.51C68.8 56.8 69.15 56.15 69.69 55.68L69.73 55.65H69.78C70.76 55.65 75.81 55.51 79.01 52.74L79.08 52.68L79.16 52.72C82.63 54.72 86.58 55.78 90.59 55.81C91.27 55.81 91.98 55.81 92.7 55.7L92.76 55.69L92.8 55.73C93.33 56.18 93.68 56.81 93.77 57.5C93.95 58.74 93.29 60.27 91.85 61.93C91.7 62.1 91.62 62.32 91.62 62.54V63.16L85.45 66.47L85.38 66.41C84.85 65.9 84.15 65.63 83.42 65.63C83.39 65.63 83.37 65.63 83.34 65.63C82.58 65.65 81.87 65.97 81.34 66.52C80.26 67.66 80.31 69.47 81.45 70.56C82.59 71.64 84.4 71.59 85.49 70.45C85.99 69.92 86.27 69.22 86.27 68.49C86.27 68.39 86.27 68.31 86.27 68.22V68.14L86.34 68.1L91.32 65.43L91.27 65.69C90.86 67.75 89.89 69.66 88.47 71.21C86.73 72.89 84.38 73.83 81.98 73.83C81.82 73.83 81.67 73.83 81.51 73.82H81C78.45 73.95 75.91 73 74.06 71.23C70.81 67.99 70.81 62.76 70.81 62.54ZM84.44 68.48C84.44 69.06 83.97 69.53 83.39 69.53C82.81 69.53 82.34 69.06 82.34 68.48C82.34 67.9 82.81 67.43 83.39 67.43C83.97 67.43 84.44 67.9 84.44 68.48ZM80.3 88.27H55.84L55.85 88.13C56.68 80.29 69.46 76.99 73.36 76.16L73.51 76.13V78.14C73.51 80.38 76.25 82.16 80.18 82.46L80.3 82.47V88.27ZM75.33 78.13V74.36L75.51 74.44C77.14 75.19 78.93 75.59 80.73 75.59C80.8 75.59 80.88 75.59 80.95 75.59H81.47C81.55 75.59 81.62 75.59 81.7 75.59C83.49 75.59 85.29 75.19 86.92 74.44L87.1 74.36V78.13C87.1 79.18 84.86 80.66 81.22 80.66C77.58 80.66 75.33 79.19 75.33 78.13ZM82.12 88.3V82.45L82.24 82.44C86.17 82.17 88.91 80.4 88.91 78.13V76.17L89.06 76.2C92.95 77 105.7 80.25 106.57 88.16L106.59 88.3H82.12Z" fill="black"/>
</svg>
