<svg width="133" height="137" viewBox="0 0 133 137" fill="none" xmlns="http://www.w3.org/2000/svg">
<path d="M128.404 64.2022C128.404 28.7443 99.6601 4.53366e-05 64.2022 4.68865e-05C28.7443 4.84365e-05 -4.35628e-06 28.7443 -2.80637e-06 64.2022C-1.25645e-06 99.6601 28.7443 128.404 64.2022 128.404C99.6601 128.404 128.404 99.6601 128.404 64.2022Z" fill="#88CBFF"/>
<path d="M110.932 97.7272C117.462 88.3996 121.294 77.0432 121.294 64.7918C121.294 33.0386 95.5537 7.29822 63.8005 7.29822C52.2274 7.29822 41.453 10.7182 32.4322 16.6018" stroke="black" stroke-width="2" stroke-miterlimit="10" stroke-linecap="round"/>
<path d="M17.3113 30.9556C10.3901 40.4486 6.3053 52.1434 6.3053 64.7918C6.3053 96.545 32.0457 122.285 63.7989 122.285C75.4126 122.285 86.2216 118.841 95.2619 112.92C95.3822 112.842 95.5026 112.762 95.6214 112.683" stroke="black" stroke-width="2" stroke-miterlimit="10" stroke-linecap="round"/>
<path d="M131.525 114.652C137.614 87.4856 91.4797 69.3678 73.2732 110.257C62.5788 134.274 123.149 152.02 131.525 114.652Z" fill="#4050A5"/>
<path d="M103.738 122.36C103.306 122.36 102.85 122.328 102.37 122.264C101.89 122.216 101.426 122.144 100.978 122.048C100.53 121.952 100.122 121.848 99.7536 121.736C99.3856 121.624 99.0976 121.52 98.8896 121.424L99.5856 118.448C100.002 118.624 100.53 118.816 101.17 119.024C101.826 119.216 102.634 119.312 103.594 119.312C104.698 119.312 105.506 119.104 106.018 118.688C106.53 118.272 106.786 117.712 106.786 117.008C106.786 116.576 106.69 116.216 106.498 115.928C106.322 115.624 106.074 115.384 105.754 115.208C105.434 115.016 105.05 114.888 104.602 114.824C104.17 114.744 103.706 114.704 103.21 114.704H101.818V111.824H103.402C103.754 111.824 104.09 111.792 104.41 111.728C104.746 111.664 105.042 111.56 105.298 111.416C105.554 111.256 105.754 111.048 105.898 110.792C106.058 110.52 106.138 110.184 106.138 109.784C106.138 109.48 106.074 109.216 105.946 108.992C105.818 108.768 105.65 108.584 105.442 108.44C105.25 108.296 105.018 108.192 104.746 108.128C104.49 108.048 104.226 108.008 103.954 108.008C103.266 108.008 102.626 108.112 102.034 108.32C101.458 108.528 100.93 108.784 100.45 109.088L99.1776 106.472C99.4336 106.312 99.7296 106.144 100.066 105.968C100.418 105.792 100.802 105.632 101.218 105.488C101.634 105.344 102.074 105.224 102.538 105.128C103.018 105.032 103.522 104.984 104.05 104.984C105.026 104.984 105.866 105.104 106.57 105.344C107.29 105.568 107.882 105.896 108.346 106.328C108.81 106.744 109.154 107.24 109.378 107.816C109.602 108.376 109.714 108.992 109.714 109.664C109.714 110.32 109.53 110.96 109.162 111.584C108.794 112.192 108.298 112.656 107.674 112.976C108.538 113.328 109.202 113.856 109.666 114.56C110.146 115.248 110.386 116.08 110.386 117.056C110.386 117.824 110.258 118.536 110.002 119.192C109.746 119.832 109.346 120.392 108.802 120.872C108.258 121.336 107.562 121.704 106.714 121.976C105.882 122.232 104.89 122.36 103.738 122.36Z" fill="white"/>
<path d="M91.06 41H68.37C67.88 41 67.49 41.39 67.49 41.88C67.49 42.37 67.88 42.76 68.37 42.76H90.17V47.17H37.76V42.76H59.56C60.05 42.76 60.44 42.36 60.44 41.88C60.44 41.4 60.05 41 59.56 41H36.88C36.39 41 36 41.39 36 41.88V48.05C36 48.54 36.39 48.93 36.88 48.93H37.54V85.27C37.54 85.76 37.93 86.15 38.42 86.15H63.09V90.9L62.94 90.95C61.71 91.39 60.88 92.55 60.88 93.86C60.88 95.56 62.26 96.94 63.96 96.94C65.66 96.94 67.04 95.56 67.04 93.86C67.04 92.56 66.21 91.39 64.98 90.95L64.83 90.9V86.15H89.5C89.99 86.15 90.38 85.76 90.38 85.27V48.93H91.04C91.53 48.93 91.92 48.53 91.92 48.05V41.88C91.94 41.39 91.54 41 91.06 41ZM65.29 93.85C65.29 94.58 64.7 95.17 63.97 95.17C63.24 95.17 62.65 94.58 62.65 93.85C62.65 93.12 63.24 92.53 63.97 92.53C64.7 92.53 65.29 93.12 65.29 93.85ZM88.63 84.38H39.3V48.93H88.63V84.38Z" fill="black"/>
<path d="M42.83 65.33H55.16C55.65 65.33 56.04 64.93 56.04 64.45V54.21C56.04 53.72 55.65 53.33 55.16 53.33H42.83C42.34 53.33 41.95 53.73 41.95 54.21V64.45C41.95 64.94 42.34 65.33 42.83 65.33ZM43.71 55.09H54.28V63.57H43.71V55.09Z" fill="black"/>
<path d="M42.83 79.98H55.16C55.65 79.98 56.04 79.59 56.04 79.1V68.86C56.04 68.37 55.65 67.98 55.16 67.98H42.83C42.34 67.98 41.95 68.38 41.95 68.86V79.1C41.95 79.58 42.34 79.98 42.83 79.98ZM43.71 69.74H54.28V78.22H43.71V69.74Z" fill="black"/>
<path d="M72.78 65.33H85.11C85.6 65.33 85.99 64.93 85.99 64.45V54.21C85.99 53.72 85.6 53.33 85.11 53.33H72.78C72.29 53.33 71.9 53.73 71.9 54.21V64.45C71.9 64.94 72.29 65.33 72.78 65.33ZM73.66 55.09H84.23V63.57H73.66V55.09Z" fill="black"/>
<path d="M72.78 79.98H85.11C85.6 79.98 85.99 79.59 85.99 79.1V68.86C85.99 68.37 85.6 67.98 85.11 67.98H72.78C72.29 67.98 71.9 68.38 71.9 68.86V79.1C71.9 79.58 72.29 79.98 72.78 79.98ZM73.66 69.74H84.23V78.22H73.66V69.74Z" fill="black"/>
<path d="M59.58 79.98H68.39C68.88 79.98 69.27 79.59 69.27 79.1V54.21C69.27 53.72 68.88 53.33 68.39 53.33H59.58C59.09 53.33 58.7 53.73 58.7 54.21V79.1C58.7 79.58 59.09 79.98 59.58 79.98ZM60.46 55.09H67.51V78.21H60.46V55.09Z" fill="black"/>
<path d="M64.59 42.5C64.75 42.34 64.85 42.11 64.85 41.88C64.85 41.65 64.76 41.42 64.59 41.26C64.43 41.09 64.2 41 63.97 41C63.74 41 63.51 41.09 63.35 41.26C63.19 41.42 63.09 41.65 63.09 41.88C63.09 42.11 63.18 42.34 63.35 42.5C63.67 42.83 64.26 42.83 64.59 42.5Z" fill="black"/>
</svg>
