<svg width="172" height="130" viewBox="0 0 172 130" fill="none" xmlns="http://www.w3.org/2000/svg">
<path d="M118.788 116.735C105.001 114.864 91.214 112.993 77.4271 111.122C63.1379 109.182 48.8472 107.243 34.5581 105.305C32.5969 105.038 26.8502 104.001 21.7623 99.1578C18.3303 95.8912 15.9028 91.5703 14.9929 86.6809L6.18272 39.3842C3.65154 25.7989 13.5582 13.0543 27.348 12.1549L132.719 5.28327C147.744 4.30418 159.659 17.7527 156.879 32.5502L144.548 98.1502C142.28 110.214 130.953 118.386 118.788 116.735Z" stroke="black" stroke-width="2" stroke-miterlimit="10" stroke-linecap="round"/>
<path d="M25.6274 3.61239C29.243 1.9099 33.2285 1 37.3328 1" stroke="black" stroke-width="2" stroke-miterlimit="10" stroke-linecap="round"/>
<path d="M53.3244 121.044C52.0867 121.212 50.8309 121.296 49.5901 121.296H49.5886C42.338 121.296 35.6423 118.463 30.6642 113.76" stroke="black" stroke-width="2" stroke-miterlimit="10" stroke-linecap="round"/>
<path d="M142.955 12.8706L38.3797 6.05011C23.4693 5.07704 11.6422 18.4247 14.4019 33.111L26.6397 98.2147C28.8911 110.189 40.1303 118.3 52.2041 116.662C73.1032 113.826 114.9 108.153 135.799 105.318C145.581 103.99 153.409 96.5393 155.217 86.8342L163.961 39.8954C166.471 26.4123 156.64 13.764 142.955 12.8706Z" fill="#88CBFF"/>
<path d="M170.66 10.7143C171.058 9.02562 170.013 7.33343 168.324 6.93469C166.635 6.53595 164.943 7.58165 164.544 9.27031C164.146 10.959 165.191 12.6511 166.88 13.0499C168.569 13.4486 170.261 12.4029 170.66 10.7143Z" stroke="black" stroke-width="2" stroke-miterlimit="10" stroke-linecap="round"/>
<path d="M155.281 108.288L155.892 107.678" stroke="black" stroke-width="0.939979" stroke-miterlimit="10" stroke-linecap="round"/>
<path d="M151.009 112.56L151.619 111.949" stroke="black" stroke-width="0.939979" stroke-miterlimit="10" stroke-linecap="round"/>
<path d="M151.619 108.288L151.009 107.678" stroke="black" stroke-width="0.939979" stroke-miterlimit="10" stroke-linecap="round"/>
<path d="M155.892 112.56L155.281 111.949" stroke="black" stroke-width="0.939979" stroke-miterlimit="10" stroke-linecap="round"/>
<path d="M5.27124 12.4707L5.88184 11.8601" stroke="black" stroke-width="2" stroke-miterlimit="10" stroke-linecap="round"/>
<path d="M1 16.742L1.6091 16.1313" stroke="black" stroke-width="2" stroke-miterlimit="10" stroke-linecap="round"/>
<path d="M1.6091 12.4707L1 11.8601" stroke="black" stroke-width="2" stroke-miterlimit="10" stroke-linecap="round"/>
<path d="M5.88184 16.742L5.27124 16.1313" stroke="black" stroke-width="2" stroke-miterlimit="10" stroke-linecap="round"/>
<path d="M115.852 112.349C103.151 110.626 90.4499 108.902 77.7504 107.179C64.5862 105.392 51.4235 103.605 38.2593 101.818C36.453 101.573 31.1591 100.618 26.4712 96.156C23.3099 93.1465 21.0735 89.1655 20.2358 84.6612L12.1204 41.0912C9.78921 28.5767 18.9153 16.8368 31.6178 16.0081L128.685 9.6779C142.526 8.77552 153.504 21.1652 150.941 34.7956L139.582 95.2265C137.493 106.342 127.059 113.871 115.852 112.349Z" stroke="black" stroke-width="2" stroke-miterlimit="10" stroke-linecap="round"/>
<path d="M105.44 40H60.5C58.01 40 56 42.01 56 44.5V75.07C56 77.55 58.01 79.56 60.5 79.56H105.45C107.93 79.56 109.94 77.55 109.95 75.07V44.5C109.94 42.01 107.92 40 105.44 40ZM108.14 75.06C108.14 76.55 106.93 77.76 105.44 77.76H60.5C59.01 77.76 57.8 76.55 57.8 75.06V44.5C57.8 43.01 59.01 41.8 60.5 41.8H105.45C106.94 41.8 108.15 43.01 108.15 44.5V75.06H108.14Z" fill="black"/>
<path d="M60.5 51.69C61 51.69 61.4 51.29 61.4 50.79V46.29C61.4 46.23 61.41 46.17 61.42 46.11C61.42 46.05 61.44 46 61.46 45.94C61.48 45.89 61.51 45.83 61.55 45.78C61.58 45.73 61.62 45.69 61.66 45.65C61.7 45.61 61.75 45.58 61.79 45.55C61.84 45.52 61.89 45.49 61.94 45.47C62 45.44 62.05 45.42 62.11 45.41C62.17 45.4 62.23 45.39 62.29 45.39H66.78C67.28 45.39 67.68 44.99 67.68 44.49C67.68 43.99 67.28 43.59 66.78 43.59H62.29C62.11 43.59 61.93 43.61 61.75 43.64C61.58 43.69 61.41 43.74 61.24 43.81C60.76 44.01 60.35 44.35 60.06 44.78C59.96 44.92 59.88 45.08 59.81 45.24C59.74 45.4 59.69 45.57 59.65 45.75C59.61 45.93 59.6 46.11 59.6 46.29V50.78C59.6 51.28 60 51.69 60.5 51.69Z" fill="black"/>
<path d="M66.79 74.16H62.29C62.17 74.16 62.05 74.14 61.94 74.09C61.89 74.07 61.84 74.04 61.79 74.01C61.74 73.98 61.7 73.94 61.66 73.9C61.62 73.86 61.58 73.81 61.55 73.77C61.52 73.72 61.49 73.67 61.47 73.62C61.45 73.57 61.43 73.51 61.42 73.45C61.41 73.39 61.4 73.33 61.4 73.27V68.77C61.4 68.27 61 67.87 60.5 67.87C60 67.87 59.6 68.27 59.6 68.77V73.27C59.6 73.45 59.62 73.63 59.65 73.81C59.72 74.16 59.86 74.48 60.05 74.78C60.34 75.21 60.75 75.55 61.24 75.76C61.57 75.9 61.93 75.97 62.29 75.97H66.78C67.28 75.97 67.68 75.57 67.68 75.07C67.69 74.56 67.28 74.16 66.79 74.16Z" fill="black"/>
<path d="M105.44 67.87C104.94 67.87 104.54 68.27 104.54 68.77V73.27C104.54 73.33 104.53 73.39 104.52 73.45C104.51 73.51 104.49 73.56 104.47 73.61C104.45 73.67 104.42 73.72 104.38 73.77C104.35 73.82 104.31 73.86 104.27 73.9C104.23 73.94 104.19 73.98 104.14 74.01C104.09 74.04 104.04 74.07 103.99 74.09C103.94 74.11 103.88 74.13 103.83 74.14C103.77 74.15 103.71 74.16 103.64 74.16H99.15C98.65 74.16 98.25 74.56 98.25 75.06C98.25 75.56 98.65 75.96 99.15 75.96H103.64C103.82 75.96 104 75.94 104.18 75.91C104.35 75.87 104.52 75.82 104.69 75.75C105.17 75.55 105.58 75.21 105.87 74.78C105.97 74.64 106.05 74.48 106.12 74.32C106.19 74.16 106.24 73.99 106.28 73.82C106.32 73.64 106.34 73.46 106.34 73.27V68.77C106.34 68.27 105.94 67.87 105.44 67.87Z" fill="black"/>
<path d="M106.13 45.24C106.06 45.08 105.98 44.93 105.88 44.79C105.59 44.36 105.18 44.02 104.69 43.81C104.36 43.67 104 43.6 103.64 43.6H99.15C98.65 43.6 98.25 44 98.25 44.5C98.25 45 98.65 45.4 99.15 45.4H103.64C103.76 45.4 103.88 45.42 103.99 45.47C104.04 45.49 104.09 45.52 104.14 45.55C104.19 45.58 104.23 45.62 104.27 45.66C104.31 45.7 104.35 45.75 104.38 45.79C104.41 45.84 104.44 45.89 104.46 45.94C104.5 46 104.52 46.06 104.53 46.12C104.54 46.18 104.55 46.24 104.55 46.3V50.79C104.55 51.29 104.95 51.69 105.45 51.69C105.95 51.69 106.35 51.29 106.35 50.79V46.29C106.35 46.11 106.33 45.93 106.3 45.75C106.25 45.58 106.2 45.41 106.13 45.24Z" fill="black"/>
<path d="M71.28 66.07H69.48V52.59C69.48 52.23 69.26 51.9 68.92 51.76C68.58 51.62 68.2 51.7 67.94 51.95L65.24 54.65C64.91 55 64.92 55.56 65.26 55.91C65.61 56.26 66.17 56.26 66.52 55.92L67.68 54.76V66.07H65.88C65.38 66.07 64.98 66.47 64.98 66.97C64.98 67.47 65.38 67.87 65.88 67.87H71.27C71.77 67.87 72.17 67.47 72.17 66.97C72.18 66.47 71.78 66.07 71.28 66.07Z" fill="black"/>
<path d="M77.58 51.69C75.59 51.69 73.98 53.3 73.98 55.29V64.28C73.98 66.27 75.59 67.88 77.58 67.88C79.57 67.88 81.18 66.27 81.18 64.28V55.29C81.17 53.3 79.56 51.69 77.58 51.69ZM79.37 64.27C79.37 65.26 78.57 66.07 77.57 66.07C76.57 66.07 75.77 65.27 75.77 64.27V55.28C75.77 54.29 76.57 53.48 77.57 53.48C78.57 53.48 79.37 54.28 79.37 55.28V64.27Z" fill="black"/>
<path d="M100.95 64.27V55.28C100.95 53.29 99.34 51.68 97.35 51.68C95.36 51.68 93.75 53.29 93.75 55.28V64.27C93.75 66.26 95.36 67.87 97.35 67.87C99.34 67.87 100.95 66.26 100.95 64.27ZM99.15 64.27C99.15 65.26 98.35 66.07 97.35 66.07C96.35 66.07 95.55 65.27 95.55 64.27V55.28C95.55 54.29 96.36 53.48 97.35 53.48C98.34 53.48 99.15 54.28 99.15 55.28V64.27Z" fill="black"/>
<path d="M91.96 56.18C91.97 54.06 90.5 52.22 88.42 51.77C86.35 51.32 84.24 52.37 83.37 54.31C82.49 56.24 83.09 58.52 84.8 59.78C83.24 60.93 82.59 62.96 83.2 64.8C83.81 66.64 85.53 67.89 87.47 67.89C89.41 67.89 91.13 66.64 91.74 64.8C92.35 62.96 91.7 60.93 90.14 59.78C91.28 58.94 91.96 57.6 91.96 56.18ZM90.16 63.37C90.16 64.86 88.95 66.07 87.46 66.07C85.97 66.07 84.76 64.86 84.76 63.37C84.76 61.88 85.97 60.67 87.46 60.67C88.95 60.68 90.16 61.88 90.16 63.37ZM87.46 58.88C85.97 58.88 84.76 57.67 84.76 56.18C84.76 54.69 85.97 53.48 87.46 53.48C88.95 53.48 90.16 54.69 90.16 56.18C90.16 57.67 88.95 58.88 87.46 58.88Z" fill="black"/>
<path d="M106.376 99.4413C81.9277 134.202 167.909 143.422 167.562 103.972C167.332 77.6824 126.327 71.0752 106.376 99.4413Z" fill="#4050A5"/>
<path d="M138.464 109.113C138.464 108.649 138.36 108.241 138.152 107.889C137.944 107.521 137.584 107.217 137.072 106.977C136.56 106.737 135.872 106.553 135.008 106.425C134.144 106.297 133.056 106.233 131.744 106.233C131.92 104.745 132.064 103.233 132.176 101.697C132.288 100.161 132.376 98.7214 132.44 97.3774H141.44V100.377H135.44C135.408 100.953 135.368 101.513 135.32 102.057C135.288 102.585 135.248 103.049 135.2 103.449C137.536 103.609 139.256 104.161 140.36 105.105C141.48 106.033 142.04 107.329 142.04 108.993C142.04 109.761 141.904 110.473 141.632 111.129C141.36 111.785 140.952 112.353 140.408 112.833C139.864 113.313 139.176 113.689 138.344 113.961C137.528 114.233 136.568 114.369 135.464 114.369C135.032 114.369 134.576 114.337 134.096 114.273C133.632 114.225 133.176 114.153 132.728 114.057C132.296 113.977 131.904 113.889 131.552 113.793C131.2 113.697 130.928 113.601 130.736 113.505L131.384 110.553C131.784 110.729 132.312 110.905 132.968 111.081C133.624 111.241 134.408 111.321 135.32 111.321C136.424 111.321 137.224 111.105 137.72 110.673C138.216 110.225 138.464 109.705 138.464 109.113Z" fill="white"/>
</svg>
