<svg width="164" height="143" viewBox="0 0 164 143" fill="none" xmlns="http://www.w3.org/2000/svg">
<path d="M147.346 77.8241C160.475 176.772 -33.7522 117.589 11.1096 38.4412C41.0085 -14.3059 136.634 -2.92087 147.346 77.8241Z" stroke="black" stroke-width="2" stroke-miterlimit="10" stroke-linecap="round"/>
<path d="M155.715 93.0518C160.124 84.592 163.308 72.3061 158.291 57.0995" stroke="black" stroke-width="2" stroke-miterlimit="10" stroke-linecap="round" stroke-dasharray="0.79 0.79"/>
<path d="M18.6746 114.53C27.369 123.301 39.6278 129.254 54.1622 131.934C59.9539 133.002 66.1082 133.551 72.5406 133.551" stroke="black" stroke-width="2" stroke-miterlimit="10" stroke-linecap="round" stroke-dasharray="0.79 0.79"/>
<path d="M126.27 15.5494C114.999 7.37832 102.376 2.41523 89.0091 1" stroke="black" stroke-width="2" stroke-miterlimit="10" stroke-linecap="round" stroke-dasharray="0.79 0.79"/>
<path d="M145.139 41.7666C203.939 125.972 7.63101 170.566 8.4642 75.0027C9.01767 11.3142 97.1546 -26.9497 145.139 41.7666Z" fill="#88CBFF"/>
<path d="M0.999993 102.652C0.999993 104.387 2.40622 105.793 4.1418 105.793C5.87738 105.793 7.28357 104.387 7.28357 102.652C7.28357 100.916 5.87738 99.5098 4.1418 99.5098C2.40622 99.5098 0.999993 100.916 0.999993 102.652Z" stroke="black" stroke-width="2" stroke-miterlimit="10" stroke-linecap="round"/>
<path d="M147.121 23.3655L146.51 22.7549" stroke="black" stroke-width="2" stroke-miterlimit="10" stroke-linecap="round"/>
<path d="M151.392 27.6382L150.783 27.0276" stroke="black" stroke-width="2" stroke-miterlimit="10" stroke-linecap="round"/>
<path d="M150.783 23.3655L151.392 22.7549" stroke="black" stroke-width="2" stroke-miterlimit="10" stroke-linecap="round"/>
<path d="M146.51 27.6382L147.121 27.0276" stroke="black" stroke-width="2" stroke-miterlimit="10" stroke-linecap="round"/>
<path d="M138.655 44.3759C191.39 119.896 15.3313 159.89 16.0788 74.183C16.5766 17.0654 95.6221 -17.2522 138.655 44.3759Z" stroke="black" stroke-width="2" stroke-miterlimit="10" stroke-linecap="round"/>
<path d="M102.376 112.441C77.9277 147.202 163.909 156.422 163.562 116.972C163.332 90.6824 122.327 84.0752 102.376 112.441Z" fill="#4050A5"/>
<path d="M137.728 114.745C137.728 115.353 137.608 115.937 137.368 116.497C137.128 117.057 136.816 117.601 136.432 118.129C136.048 118.641 135.616 119.137 135.136 119.617C134.656 120.097 134.184 120.553 133.72 120.985C133.48 121.209 133.216 121.465 132.928 121.753C132.656 122.025 132.392 122.305 132.136 122.593C131.88 122.881 131.648 123.153 131.44 123.409C131.248 123.649 131.128 123.849 131.08 124.009H138.232V127.009H127.144C127.112 126.833 127.096 126.609 127.096 126.337C127.096 126.065 127.096 125.873 127.096 125.761C127.096 124.993 127.216 124.289 127.456 123.649C127.712 123.009 128.04 122.417 128.44 121.873C128.84 121.313 129.288 120.793 129.784 120.313C130.296 119.833 130.8 119.353 131.296 118.873C131.68 118.505 132.04 118.161 132.376 117.841C132.712 117.505 133.008 117.185 133.264 116.881C133.52 116.561 133.72 116.249 133.864 115.945C134.008 115.625 134.08 115.305 134.08 114.985C134.08 114.281 133.88 113.785 133.48 113.497C133.08 113.209 132.584 113.065 131.992 113.065C131.56 113.065 131.152 113.137 130.768 113.281C130.4 113.409 130.056 113.569 129.736 113.761C129.432 113.937 129.168 114.121 128.944 114.313C128.72 114.489 128.552 114.633 128.44 114.745L126.664 112.249C127.368 111.593 128.184 111.057 129.112 110.641C130.056 110.209 131.064 109.993 132.136 109.993C133.112 109.993 133.952 110.105 134.656 110.329C135.36 110.553 135.936 110.873 136.384 111.289C136.848 111.689 137.184 112.185 137.392 112.777C137.616 113.353 137.728 114.009 137.728 114.745Z" fill="white"/>
<path d="M98.71 42.98H91.54C91.15 41.83 90.06 40.99 88.77 40.99H85.74C84.81 39.75 83.36 39 81.81 39C80.26 39 78.81 39.75 77.89 40.99H74.86C73.58 40.99 72.48 41.82 72.09 42.98H64.91C62.76 42.98 61 44.73 61 46.89V92.61C61 94.77 62.76 96.52 64.91 96.52H98.7C100.86 96.52 102.61 94.76 102.61 92.61V46.89C102.62 44.73 100.86 42.98 98.71 42.98ZM72.09 48.81C72.48 49.96 73.57 50.8 74.86 50.8H88.77C90.05 50.8 91.15 49.97 91.54 48.81H96.79V90.68H66.84V48.81H72.09ZM74.85 42.85H78.38C78.71 42.85 79.02 42.67 79.19 42.39C79.75 41.44 80.72 40.87 81.81 40.87C82.89 40.87 83.87 41.44 84.43 42.39C84.6 42.68 84.9 42.85 85.24 42.85H88.77C89.35 42.85 89.83 43.32 89.83 43.91V47.88C89.83 48.46 89.36 48.93 88.77 48.93H74.85C74.27 48.93 73.8 48.46 73.79 47.88V43.91C73.8 43.32 74.27 42.85 74.85 42.85ZM100.76 92.61C100.76 93.74 99.84 94.66 98.71 94.66H64.91C63.78 94.66 62.86 93.74 62.86 92.61V46.89C62.86 45.76 63.78 44.84 64.91 44.84H71.93V46.95H65.91C65.4 46.95 64.98 47.37 64.98 47.88V91.61C64.98 92.12 65.4 92.54 65.91 92.54H97.72C98.23 92.54 98.65 92.12 98.65 91.61V47.88C98.65 47.37 98.23 46.95 97.72 46.95H91.69V44.84H98.71C99.84 44.84 100.76 45.76 100.76 46.89V92.61Z" fill="black"/>
<path d="M81.81 46.83C82.32 46.83 82.74 46.41 82.74 45.9V43.91C82.74 43.4 82.32 42.98 81.81 42.98C81.3 42.98 80.88 43.4 80.88 43.91V45.9C80.88 46.41 81.3 46.83 81.81 46.83Z" fill="black"/>
<path d="M82.8 59.75H88.76C89.27 59.75 89.69 59.33 89.69 58.82C89.69 58.31 89.27 57.89 88.76 57.89H82.8C82.29 57.89 81.87 58.31 81.87 58.82C81.87 59.33 82.29 59.75 82.8 59.75Z" fill="black"/>
<path d="M82.8 63.72H92.74C93.25 63.72 93.67 63.3 93.67 62.79C93.67 62.28 93.25 61.86 92.74 61.86H82.8C82.29 61.86 81.87 62.28 81.87 62.79C81.87 63.31 82.29 63.72 82.8 63.72Z" fill="black"/>
<path d="M73.2 63.45C73.38 63.63 73.62 63.72 73.86 63.72C74.1 63.72 74.34 63.63 74.52 63.45L79.49 58.48C79.85 58.12 79.85 57.53 79.49 57.16C79.13 56.8 78.54 56.8 78.17 57.16L73.86 61.47L71.54 59.15C71.18 58.79 70.59 58.79 70.22 59.15C69.86 59.51 69.86 60.1 70.22 60.47L73.2 63.45Z" fill="black"/>
<path d="M82.8 69.69H88.76C89.27 69.69 89.69 69.27 89.69 68.76C89.69 68.25 89.27 67.83 88.76 67.83H82.8C82.29 67.83 81.87 68.25 81.87 68.76C81.87 69.27 82.29 69.69 82.8 69.69Z" fill="black"/>
<path d="M82.8 73.66H92.74C93.25 73.66 93.67 73.24 93.67 72.73C93.67 72.22 93.25 71.8 92.74 71.8H82.8C82.29 71.8 81.87 72.22 81.87 72.73C81.87 73.24 82.29 73.66 82.8 73.66Z" fill="black"/>
<path d="M73.2 73.39C73.38 73.57 73.62 73.66 73.86 73.66C74.1 73.66 74.34 73.57 74.52 73.39L79.49 68.42C79.85 68.06 79.85 67.47 79.49 67.1C79.13 66.74 78.54 66.74 78.17 67.1L73.86 71.41L71.54 69.09C71.18 68.73 70.59 68.73 70.22 69.09C69.86 69.45 69.86 70.04 70.22 70.41L73.2 73.39Z" fill="black"/>
<path d="M82.8 79.63H88.76C89.27 79.63 89.69 79.21 89.69 78.7C89.69 78.19 89.27 77.77 88.76 77.77H82.8C82.29 77.77 81.87 78.19 81.87 78.7C81.87 79.21 82.29 79.63 82.8 79.63Z" fill="black"/>
<path d="M82.8 83.6H92.74C93.25 83.6 93.67 83.18 93.67 82.67C93.67 82.16 93.25 81.74 92.74 81.74H82.8C82.29 81.74 81.87 82.16 81.87 82.67C81.87 83.18 82.29 83.6 82.8 83.6Z" fill="black"/>
<path d="M73.2 83.33C73.38 83.51 73.62 83.6 73.86 83.6C74.1 83.6 74.34 83.51 74.52 83.33L79.49 78.36C79.85 78 79.85 77.41 79.49 77.04C79.13 76.68 78.54 76.68 78.17 77.04L73.86 81.35L71.54 79.03C71.18 78.67 70.59 78.67 70.22 79.03C69.86 79.39 69.86 79.98 70.22 80.35L73.2 83.33Z" fill="black"/>
</svg>
