<svg width="166" height="133" viewBox="0 0 166 133" fill="none" xmlns="http://www.w3.org/2000/svg">
<path d="M69.6924 3.16235C52.0749 3.16235 35.7795 8.44156 23.8114 18.0269" stroke="black" stroke-width="2" stroke-miterlimit="10" stroke-linecap="round"/>
<path d="M130.621 115.51C143.097 110.099 152.609 102.299 157.556 92.8123" stroke="black" stroke-width="0.944333" stroke-miterlimit="10" stroke-linecap="round" stroke-dasharray="0.79 0.79"/>
<path d="M136.294 26.5125C218.454 78.264 43.5198 162.792 6.79445 89.1522C-19.7063 36.0154 69.2481 -15.7186 136.294 26.5125Z" stroke="black" stroke-width="2" stroke-miterlimit="10" stroke-linecap="round"/>
<path d="M16.9098 51.0614C-38.4539 130.345 156.251 151.374 155.465 61.3962C154.944 1.43325 62.0882 -13.6368 16.9098 51.0614Z" fill="#88CBFF"/>
<path d="M19.8633 21.4885C14.2971 26.8372 10.1042 33.0623 7.3649 39.9975" stroke="black" stroke-width="2" stroke-miterlimit="10" stroke-linecap="round" stroke-dasharray="0.79 0.79"/>
<path d="M142.572 19.4564C142.572 21.2 143.985 22.6127 145.729 22.6127C147.472 22.6127 148.885 21.2 148.885 19.4564C148.885 17.7128 147.472 16.3 145.729 16.3C143.985 16.3 142.572 17.7128 142.572 19.4564Z" stroke="black" stroke-width="2" stroke-miterlimit="10" stroke-linecap="round"/>
<path d="M6.74689 108.488L6.13345 107.875" stroke="black" stroke-width="2" stroke-miterlimit="10" stroke-linecap="round"/>
<path d="M11.0394 112.779L10.426 112.166" stroke="black" stroke-width="2" stroke-miterlimit="10" stroke-linecap="round"/>
<path d="M10.426 108.488L11.0394 107.875" stroke="black" stroke-width="2" stroke-miterlimit="10" stroke-linecap="round"/>
<path d="M6.13345 112.779L6.74689 112.166" stroke="black" stroke-width="2" stroke-miterlimit="10" stroke-linecap="round"/>
<path d="M18.8042 42.3547C-40.8732 118.676 102.312 165.531 146.776 71.5943C173.577 14.969 67.908 -20.4442 18.8042 42.3547Z" stroke="black" stroke-width="2" stroke-miterlimit="10" stroke-linecap="round"/>
<path d="M53 47.3V45.44H90.21C91.24 45.44 92.07 46.27 92.07 47.3H95.79V44.51C95.79 40.91 98.71 38 102.3 38C105.89 38 108.82 40.92 108.82 44.51V61.26C108.82 64.86 105.9 67.77 102.31 67.77C98.72 67.77 95.8 64.85 95.8 61.26V49.16H92.08C92.08 50.19 91.25 51.02 90.22 51.02H53.01V49.16H85.56V47.3H53ZM106.96 44.51C106.96 41.94 104.88 39.86 102.31 39.86C99.74 39.86 97.66 41.94 97.66 44.51V49.16H106.96V44.51ZM97.66 61.26C97.66 63.83 99.74 65.91 102.31 65.91C104.88 65.91 106.96 63.83 106.96 61.26V51.02H97.66V61.26ZM87.42 49.16H90.21V47.3H87.42V49.16Z" fill="black"/>
<path d="M103.24 60.33H105.1V62.19H103.24V60.33Z" fill="black"/>
<path d="M99.52 60.33H101.38V62.19H99.52V60.33Z" fill="black"/>
<path d="M103.24 56.61H105.1V58.47H103.24V56.61Z" fill="black"/>
<path d="M99.52 56.61H101.38V58.47H99.52V56.61Z" fill="black"/>
<path d="M103.24 52.89H105.1V54.75H103.24V52.89Z" fill="black"/>
<path d="M99.52 52.89H101.38V54.75H99.52V52.89Z" fill="black"/>
<path d="M58.58 55.68V91.03C58.58 91.54 59 91.96 59.51 91.96H68.82C69.33 91.96 69.75 91.54 69.75 91.03V88.24C68.21 88.24 66.96 86.99 66.96 85.45V81.73H66.03C64.49 81.73 63.24 80.48 63.24 78.94V71.5C62.21 71.5 61.38 70.67 61.38 69.64V68.7C61.38 59.97 68.46 52.88 77.2 52.88C85.94 52.88 93 59.97 93 68.7V69.63C93 70.66 92.17 71.49 91.14 71.49V78.93C91.14 80.47 89.89 81.72 88.35 81.72H87.42V85.44C87.42 86.98 86.17 88.23 84.63 88.23H82.77C81.23 88.23 79.98 86.98 79.98 85.44V76.14C79.98 74.6 81.23 73.35 82.77 73.35H84.63C86.17 73.35 87.42 74.6 87.42 76.14V79.86H88.35C88.86 79.86 89.28 79.44 89.28 78.93V71.49H88.35C86.81 71.49 85.56 70.24 85.56 68.7C85.56 64.08 81.81 60.33 77.19 60.33C72.57 60.33 68.82 64.08 68.82 68.7C68.82 70.24 67.57 71.49 66.03 71.49H65.1V78.93C65.1 79.44 65.52 79.86 66.03 79.86H66.96V76.14C66.96 74.6 68.21 73.35 69.75 73.35H71.61C73.15 73.35 74.4 74.6 74.4 76.14V85.44C74.4 86.98 73.15 88.23 71.61 88.23V91.02C71.61 92.56 70.36 93.81 68.82 93.81H59.52C57.98 93.81 56.73 92.56 56.73 91.02V55.68C56.73 55.17 56.31 54.75 55.8 54.75H53.01V52.89H55.8C57.33 52.89 58.58 54.14 58.58 55.68ZM85.56 76.14C85.56 75.63 85.14 75.21 84.63 75.21H82.77C82.26 75.21 81.84 75.63 81.84 76.14V85.44C81.84 85.95 82.26 86.37 82.77 86.37H84.63C85.14 86.37 85.56 85.95 85.56 85.44V76.14ZM66.96 68.7C66.96 63.05 71.54 58.47 77.19 58.47C82.84 58.47 87.42 63.05 87.42 68.7C87.42 69.21 87.84 69.63 88.35 69.63H91.14V68.7C91.14 60.99 84.89 54.75 77.19 54.75C69.49 54.75 63.24 61 63.24 68.7V69.63H66.03C66.54 69.63 66.95 69.21 66.96 68.7ZM72.54 85.45V76.15C72.54 75.64 72.12 75.22 71.61 75.22H69.75C69.24 75.22 68.82 75.64 68.82 76.15V85.45C68.82 85.96 69.24 86.38 69.75 86.38H71.61C72.12 86.38 72.54 85.96 72.54 85.45Z" fill="black"/>
<path d="M110.404 97.6349C86.8445 131.421 165.499 149.314 165.165 110.97C164.944 85.4163 129.63 70.0633 110.404 97.6349Z" fill="#4050A5"/>
<path d="M136.836 105.344C136.212 106.16 135.548 107.048 134.844 108.008C134.14 108.968 133.548 109.952 133.068 110.96H136.836V105.344ZM140.34 100.976V110.96H142.116V113.888H140.34V117.608H136.836V113.888H129.66V111.272C130.012 110.568 130.452 109.776 130.98 108.896C131.508 108 132.092 107.088 132.732 106.16C133.388 105.216 134.076 104.296 134.796 103.4C135.516 102.504 136.236 101.696 136.956 100.976H140.34Z" fill="white"/>
</svg>
