<svg width="114" height="35" viewBox="0 0 114 35" fill="none" xmlns="http://www.w3.org/2000/svg">
<path d="M106.333 0.500029H99.1667C97.0001 0.500029 95.3334 1.1667 94.3334 3.33336L80.6667 34.5H90.3334C90.3334 34.5 92.0001 30.3334 92.3334 29.3334C93.3334 29.3334 102.833 29.3334 104.167 29.3334C104.5 30.5 105.333 34.3334 105.333 34.3334H114L106.333 0.500029ZM95.0001 22.3334C95.8334 20.3334 98.6667 12.8334 98.6667 12.8334C98.6667 13 99.5001 10.8334 99.8334 9.66669L100.5 12.6667C100.5 12.6667 102.333 20.8334 102.667 22.5H95.0001V22.3334Z" fill="#3362AB"/>
<path d="M81.3333 23.3333C81.3333 30.3333 75 35 65.1666 35C61 35 57 34.1667 54.8333 33.1667L56.1666 25.5L57.3333 26C60.3333 27.3333 62.3333 27.8333 66 27.8333C68.6666 27.8333 71.5 26.8333 71.5 24.5C71.5 23 70.3333 22 66.6666 20.3333C63.1666 18.6667 58.5 16 58.5 11.1667C58.5 4.5 65 0 74.1666 0C77.6666 0 80.6666 0.666667 82.5 1.5L81.1666 8.83333L80.5 8.16667C78.8333 7.5 76.6666 6.83333 73.5 6.83333C70 7 68.3333 8.5 68.3333 9.83333C68.3333 11.3333 70.3333 12.5 73.5 14C78.8333 16.5 81.3333 19.3333 81.3333 23.3333Z" fill="#3362AB"/>
<path d="M41.8333 0.499946L27.3333 34.3333H17.4999L9.1666 5.99995C15.1666 9.83328 20.1666 15.8333 21.9999 19.9999L22.9999 23.4999L31.9999 0.333279H41.8333V0.499946Z" fill="#3362AB"/>
<path d="M45.6667 0.333279H54.8333L49 34.3333H39.8333L45.6667 0.333279Z" fill="#3362AB"/>
<path d="M0 0.833659L0.166667 0.166992H14.5C16.5 0.166992 18 0.833659 18.5 3.00033L21.6667 18.0003C18.5 10.0003 11.1667 3.50033 0 0.833659Z" fill="#F9B50B"/>
</svg>
