<svg width="61" height="51" viewBox="0 0 61 51" fill="none" xmlns="http://www.w3.org/2000/svg">
<path d="M60.439 28.6525C66.5283 1.4856 20.3938 -16.6322 2.18722 24.2568C-8.5071 48.2745 52.0631 66.0202 60.439 28.6525Z" fill="#88CBFF"/>
<path d="M43.0853 19.8972C43.0853 18.1365 41.5317 16.583 39.7711 16.583H26.4107C24.6501 16.583 23.0966 18.1365 23.0966 19.8972V33.2575C23.0966 35.0182 24.6501 36.5717 26.4107 36.5717H33.1427V29.0112H30.6571V25.697H33.1427V24.3506C33.1427 22.0721 34.7998 20.1043 36.8712 20.1043H39.5639V23.4185H36.8712C36.5604 23.4185 36.2497 23.7292 36.2497 24.3506V25.697H39.5639V29.0112H36.2497V36.5717H39.7711C41.5317 36.5717 43.0853 35.0182 43.0853 33.2575V19.8972Z" fill="white"/>
</svg>
