<svg width="66" height="50" viewBox="0 0 66 50" fill="none" xmlns="http://www.w3.org/2000/svg">
<path d="M4.73184 19.432C-19.7166 54.1928 66.2645 63.4128 65.9176 23.9632C65.6874 -2.32683 24.6825 -8.93412 4.73184 19.432Z" fill="#88CBFF"/>
<path d="M45.9299 27.3305V35.3713H41.2832V27.8208C41.2832 25.9577 40.6056 24.683 38.9598 24.683C37.7014 24.683 36.9269 25.5655 36.6365 26.3499C36.5397 26.6441 36.4429 27.0363 36.4429 27.5266V35.3713H31.7962C31.7962 35.3713 31.893 22.6237 31.7962 21.349H36.4429V23.3102C37.0237 22.3296 38.1854 20.9568 40.6055 20.9568C43.6065 20.9568 45.9299 23.016 45.9299 27.3305ZM26.9559 14.583C25.407 14.583 24.3421 15.6616 24.3421 17.0345C24.3421 18.4073 25.3102 19.4859 26.8591 19.4859C28.5048 19.4859 29.4728 18.4073 29.4728 17.0345C29.5696 15.5636 28.6016 14.583 26.9559 14.583ZM24.6325 35.3713H29.2792V21.349H24.6325V35.3713Z" fill="white"/>
</svg>
