<svg width="60" height="50" viewBox="0 0 60 50" fill="none" xmlns="http://www.w3.org/2000/svg">
<path d="M4.40411 15.027C-19.1555 48.8134 59.4993 66.7062 59.1655 28.3625C58.9437 2.80834 23.6299 -12.5446 4.40411 15.027Z" fill="#88CBFF"/>
<path d="M40.7769 24.9197C40.7769 24.4351 40.6952 23.8698 40.6952 23.2237C40.6135 22.5776 40.5318 21.9315 40.4501 21.3661C40.2867 20.72 40.0416 20.2355 39.5513 19.8317C39.1428 19.4278 38.5709 19.1855 37.9989 19.1048C36.1197 18.8625 33.3417 18.7817 29.5833 18.7817C25.8248 18.7817 22.9651 18.8625 21.1676 19.1048C20.5956 19.1855 20.0237 19.4278 19.6152 19.8317C19.2066 20.2355 18.8798 20.72 18.7164 21.3661C18.553 21.9315 18.4713 22.4968 18.4713 23.2237C18.3896 23.8698 18.3896 24.4351 18.3896 24.9197C18.3896 25.4042 18.3896 25.9696 18.3896 26.7772C18.3896 27.5848 18.3896 28.2309 18.3896 28.6347C18.3896 29.1193 18.4713 29.6847 18.4713 30.3308C18.553 30.9769 18.6347 31.623 18.7164 32.1883C18.8798 32.8344 19.1249 33.319 19.6152 33.7228C20.0237 34.1266 20.5956 34.3689 21.1676 34.4496C23.0468 34.6919 25.8248 34.7727 29.5833 34.7727C33.3417 34.7727 36.2014 34.6919 37.9989 34.4496C38.5709 34.3689 39.1428 34.1266 39.5513 33.7228C39.9599 33.319 40.2867 32.8344 40.4501 32.1883C40.6135 31.623 40.6952 31.0576 40.6952 30.3308C40.7769 29.6847 40.7769 29.1193 40.7769 28.6347C40.7769 28.1502 40.7769 27.5848 40.7769 26.7772C40.7769 25.9696 40.7769 25.3235 40.7769 24.9197ZM33.9137 27.4233L27.4589 31.3807C27.3772 31.4614 27.2138 31.5422 27.0504 31.5422C26.887 31.5422 26.8053 31.5422 26.6419 31.4614C26.3967 31.2999 26.2333 31.0576 26.2333 30.7346V22.7391C26.2333 22.416 26.3967 22.1738 26.6419 22.0122C26.887 21.8507 27.2138 21.8507 27.4589 22.0122L33.9137 25.9696C34.1588 26.1311 34.3222 26.3734 34.3222 26.6157C34.3222 26.858 34.1588 27.2618 33.9137 27.4233Z" fill="white"/>
</svg>
