<svg width="411" height="159" viewBox="0 0 411 159" fill="none" xmlns="http://www.w3.org/2000/svg">
<path d="M0 46H411V149C411 154.523 406.523 159 401 159H10C4.47716 159 0 154.523 0 149V46Z" fill="white"/>
<path opacity="0.33" d="M108.423 39.8986C43.8966 39.8986 17.8168 36.3168 0 27.7515V47H411V0C411 0 378.677 45.8787 231.616 44.5706C179.066 44.1031 171.145 39.8986 108.423 39.8986Z" fill="white"/>
<path d="M300.544 41.6226C365.07 41.6226 393.183 25.6478 411 17V47H0V44.0755C0 44.0755 83.8055 27.283 129.722 27.283C198.436 27.283 237.821 41.6226 300.544 41.6226Z" fill="white"/>
</svg>
