<svg width="281" height="111" viewBox="0 0 281 111" fill="none" xmlns="http://www.w3.org/2000/svg">
<path d="M205 10.6799C222.861 11.0436 240.524 15.3969 256.751 23.7108" stroke="black" stroke-width="2" stroke-miterlimit="10" stroke-linecap="round"/>
<path d="M71 109.363C68.0504 109.788 65.0578 110 62.101 110H62.0974C44.8189 110 28.863 102.857 17 91" stroke="black" stroke-width="2" stroke-miterlimit="10" stroke-linecap="round"/>
<path d="M278.342 46.4183C279.354 42.135 276.702 37.8428 272.418 36.8313C268.135 35.8199 263.843 38.4724 262.831 42.7557C261.82 47.039 264.472 51.3311 268.756 52.3425C273.039 53.354 277.331 50.7016 278.342 46.4183Z" stroke="black" stroke-width="2" stroke-miterlimit="10" stroke-linecap="round"/>
<path d="M10.6242 57.3759L12 56M1 67L2.37244 65.6241M2.37244 57.3759L1 56M12 67L10.6242 65.6241" stroke="black" stroke-width="2" stroke-miterlimit="10" stroke-linecap="round"/>
</svg>
