<svg width="1290" height="280" viewBox="0 0 1290 280" fill="none" xmlns="http://www.w3.org/2000/svg">
<path d="M2.40843 22.4787C1.12865 10.5341 10.5931 0.164234 22.6047 0.35046L1266.6 19.6371C1278.88 19.8277 1288.1 30.953 1285.99 43.0616L1252.81 233.836C1251.18 243.233 1243.13 250.169 1233.6 250.403L48.4155 279.547C38.0092 279.803 29.1465 272.034 28.0376 261.684L2.40843 22.4787Z" fill="white"/>
<path d="M1286.6 22.3722C1287.81 11.0248 1278.82 1.17343 1267.41 1.35034L23.4204 20.637C11.746 20.818 2.99536 31.387 4.99597 42.8902L38.1741 233.665C39.7267 242.592 47.3674 249.181 56.426 249.404L1241.61 278.547C1251.5 278.791 1259.91 271.41 1260.97 261.577L1286.6 22.3722Z" stroke="#041032" stroke-width="2"/>
<path d="M94 61.6445C115.114 56.3122 137.187 55.8539 158.753 60.6347" stroke="black" stroke-width="2" stroke-miterlimit="10" stroke-linecap="round" stroke-dasharray="0.79 0.79"/>
</svg>
